<mxfile host="Electron" modified="2023-11-22T07:58:31.060Z" agent="Mozilla/5.0 (X11; Linux x86_64) AppleWebKit/537.36 (KHTML, like Gecko) draw.io/22.1.2 Chrome/114.0.5735.289 Electron/25.9.4 Safari/537.36" etag="NlHu9BqMuL2E0a2MRydh" version="22.1.2" type="device">
  <diagram name="Page-1" id="t1xYU6CxfuOg9Tjy5NpU">
    <mxGraphModel dx="1434" dy="879" grid="1" gridSize="10" guides="1" tooltips="1" connect="1" arrows="1" fold="1" page="1" pageScale="1" pageWidth="850" pageHeight="1100" math="0" shadow="0">
      <root>
        <mxCell id="0" />
        <mxCell id="1" parent="0" />
        <mxCell id="LUQNYnWFUIe6KasXCGJX-10" style="edgeStyle=orthogonalEdgeStyle;rounded=0;orthogonalLoop=1;jettySize=auto;html=1;" edge="1" parent="1" source="LUQNYnWFUIe6KasXCGJX-6" target="LUQNYnWFUIe6KasXCGJX-5">
          <mxGeometry relative="1" as="geometry" />
        </mxCell>
        <mxCell id="LUQNYnWFUIe6KasXCGJX-15" style="edgeStyle=orthogonalEdgeStyle;rounded=0;orthogonalLoop=1;jettySize=auto;html=1;" edge="1" parent="1" source="LUQNYnWFUIe6KasXCGJX-6" target="LUQNYnWFUIe6KasXCGJX-14">
          <mxGeometry relative="1" as="geometry" />
        </mxCell>
        <mxCell id="LUQNYnWFUIe6KasXCGJX-6" value="" style="ellipse;whiteSpace=wrap;html=1;aspect=fixed;" vertex="1" parent="1">
          <mxGeometry x="275" y="410" width="230" height="230" as="geometry" />
        </mxCell>
        <mxCell id="LUQNYnWFUIe6KasXCGJX-4" value="" style="ellipse;whiteSpace=wrap;html=1;aspect=fixed;" vertex="1" parent="1">
          <mxGeometry x="100" y="80" width="230" height="230" as="geometry" />
        </mxCell>
        <mxCell id="LUQNYnWFUIe6KasXCGJX-1" value="Triple pattern processig" style="rounded=1;whiteSpace=wrap;html=1;" vertex="1" parent="1">
          <mxGeometry x="155" y="160" width="120" height="60" as="geometry" />
        </mxCell>
        <mxCell id="LUQNYnWFUIe6KasXCGJX-3" value="Distatcher" style="rounded=1;whiteSpace=wrap;html=1;" vertex="1" parent="1">
          <mxGeometry x="330" y="480" width="120" height="60" as="geometry" />
        </mxCell>
        <mxCell id="LUQNYnWFUIe6KasXCGJX-5" value="" style="ellipse;whiteSpace=wrap;html=1;aspect=fixed;" vertex="1" parent="1">
          <mxGeometry x="460" y="80" width="230" height="230" as="geometry" />
        </mxCell>
        <mxCell id="LUQNYnWFUIe6KasXCGJX-2" value="Data retrieval" style="rounded=1;whiteSpace=wrap;html=1;" vertex="1" parent="1">
          <mxGeometry x="515" y="165" width="120" height="60" as="geometry" />
        </mxCell>
        <mxCell id="LUQNYnWFUIe6KasXCGJX-7" value="Query" style="rounded=0;whiteSpace=wrap;html=1;" vertex="1" parent="1">
          <mxGeometry x="350" y="570" width="40" height="40" as="geometry" />
        </mxCell>
        <mxCell id="LUQNYnWFUIe6KasXCGJX-8" value="Link Queue" style="rounded=0;whiteSpace=wrap;html=1;" vertex="1" parent="1">
          <mxGeometry x="390" y="570" width="40" height="40" as="geometry" />
        </mxCell>
        <mxCell id="LUQNYnWFUIe6KasXCGJX-11" value="" style="shape=image;verticalLabelPosition=bottom;labelBackgroundColor=default;verticalAlign=top;aspect=fixed;imageAspect=0;image=data:image/png,iVBORw0KGgoAAAANSUhEUgAAAyMAAAFMCAIAAABXjPQ0AAAACXBIWXMAAA7EAAAOxAGVKw4bAAAgAElEQVR4nOydeVhT19aHl0lEA0KBCJGpYgiOYFRMHBCHiwIqFb1aBIq9LaJiUaQXbb+qVBSH21JaRHFAivcqBaRaRVEBpWAVrSBqBLWVGGgREDAGwRCBJH5/bD1NA4QkJAy636dPn5M9nX0Ckl/WWnutfi9fvgQMBoPBYDAYjA4g9fQGMBgMBoPBYN5YsNLCYDAYDAaD0RVYaWEwGAwGg8HoCqy0MBgMBoPBYHQFVloYDAaDwWAwugIrLQwGg8FgMBhdgZUWBoPBYDAYjK7ASguDwWAwGAxGV2ClhcFgMBgMBqMrsNLCYDAYDAaD0RVYaWEwGAwGg8HoCqy0MBgMBoPBYHQFVloYDAaDwWAwugIrLQwGg8FgMBhdgZUWBoPBYDAYjK7ASguDwWAwGAxGV2ClhcFgMBgMBqMrsNLCYDAYDAaD0RVYaWEwGAwGg8HoCqy0MBgMBoPBYHQFVloYDAaDwWAwugIrLQwGg8FgMBhdgZUWBoPBYDAYjK7ASguDwWAwGAxGV2ClhcFgMBgMBqMrsNLCYDAYDAaD0RVYaWEwGAwGg8HoCqy0MBgMBoPBYHQFVloYDAaDwWAwugIrLQwGg8FgMBhdgZUWBoPBYDAYjK7ASguDwWAwGAxGV2ClhcFgMBgMBqMrsNLCYDAYDAaD0RVYaWEwGAwGg8HoCkpPbwCDwagKiYS/GmHUhk43r65+3NO7wGDeXvq9fPmyp/fQB7CwsKipqenpXWA0x9zc/PHjHv6w0aJO0tcf2NT0oqPeA4Uriesgdrz8S0yvReEnFcSO72ik8p++ushkMm0t1WvBX1F0xNixY2/fvt3Tu+gDYKWlEugf6s2qRz29EYyGTLC07vFPFBKJJJMVqjyYrWSwkl4SiY2l1RtAEDteyY9Ys9+NDga/FUpLVnigp3fxpkFiB8HbodS7Dlb6GExvRCYrJJHYms2lG9C1uxlMN2NKNdFsoloyC4PBdA9YaWEwbxQyWeGi0ZE9vQtMl/B2+AoLJgzmjQErLQym79GpxYtCwoddNEdJjJSK0wfp0TServxnh61WGEyfAystDKaXorEDUSYrDHTap/X9vD10PdDNn7VL47mBTvs001JYhGEwvROstDCYPklXArkwuoNp+uqHYmPkoPXFsZbCYPoi2MWgTcRNTXmZWW3bWeyJljY26q4mFAhMaJr4IKoqKriFN9q2W1hbj3AYQ9XX1+42zv90Ei0+jqPbD37i7dXs/eyLIDml2YerKdXkqVio9S1hlEAh6c22W4FOY5FIpIOFQS9BvZNZg/QG6WZrGAymx8BKS5sIBYJNa9a22+WzPODfW76kUFR6wyUSSWLsngPfRGuWV4JbeKOjbQBA4qmTKkoioUDwdfiXALBrX5ySYehe7gu9dK20iLd3x949b4nS0hgk0XC6h24m0GkvcehdJpORSCR1fwT+rG+x6xCDecPA3kOdQDMzc1/oRTMzI1pSv08MD1mn4vTwkHUHvonu+jbsR41yX+jlvtDLftQoojFg4SJxU5Mq010dWVmn0ru+DYyOwHHxvYp2o+DVCo3vB/2U9GIthcH0UfAfYp0w0XkqYQe6XVC4YcVKQV1d1qn0gLVr5EUPAAgFgoFUquoePXFT0wuxWEWv4kfBn8z95yJ0LZFI1nzgX3D5CgD8XnJXwf6kgaeyqqICGZY6MryJm5r66+mpaMZTQCKR1FZXv/GGq/L6pnt1jTeqnv325PnIwYO+nDG87RiNHYjYrNXN+LN2KWRxVNestYp9sPcYtMRicX19PZfLffTo0a1btzZv3mxhYaHdW2AwbwlYaemccRz2v7d8idxeJ5NTPovcBq8dczfyrwrq6tAw94VekbG7KRTKBEtrYu4ES2v3hV679sUhf2LO2XOl9++jLvtRow6kpaoujygUykx3d6S0njc2oEaJRPLrpUt7dv6n9P59+1Gj1m78v8kzZlAolKqKCs9JU9CYrFPpWafSd+zdw2JPRI0+ywMunD6Ddp5TzHV1ZKH9E+KyqqIi48fjyCwXtD7s/X99iPb5dfiXqd8nAkDG9WuEivrik2BkOcvnPaDq66cmHs7LykL7BACamVnUoXhd+yW7if79y+ubrlYIrz8S5pULimsbiR4fB8t2ZVandCWQC6NFlMS/0w3sakQPu3MzGiCVSmtra/l8fmVl5Z07d7KyFONNzc3Ne2RjGMwbAFZa3QGLPRFdCAUCdPHFJ8GEmEBknUofxmSu/Pen7a5w4fQZBX9i6f373v+YfYF7q9O7i5uahAKB6Pnz73fHohanKVMAQCKRzHViE1Kv9P79kGX/opmZnb6Wr3xBpJYAwH7UqLZS7/xPJ+WjxA58E33gm+jPtkf6BHzs9t57r5TWj8fRk4qbmpDMcl/oRdXXL71//+vN4fKrCerqAhYuQiKs0yftzdQ1NcHGjYzdP7ftch02+MiicTq67yC9Qc9bnutocQyiH5DmjwhptywJMmupEho/kDJQSa/W9XRV1ZO6unpTU9PNmzffuHFD8PpPU0eQyWQt3h2DeavAcVrdAWG/Qaqi9P594RMBAHy2PfJm1aOcYi7qLePxACDj+jWOyzTUknH92meR2yQSSfqxYwDgvtCr4M/yfN4DNIAQSR2xac3aCZbWzszhnpOmLHWdg8YHrQ9DqiUxdg9q+Wx7ZMGf5bFH/4fWPHrgoLmFRcb1a2gRjsu0jOvXZnq4y6/sszwg9uj/1m78P4U7ipuakMyyHzUq4/o1Yqtfbw4XNzWN47BR7NqP/zuCxhNHNZd+9BEAnExOAQCamVk+70HBn+VB68NQr7Czj4Hej5m+PuTmtm13HTb4vD+HorQCblcSa/mzvtVgIkYtVrEPKKn+JpPJVrE7L7r30fjYbnMdCoWNcXHpgYHfDBs2LCsrq1OZ5e7urnwABoNRArZp9QD2o0Ydy7kAABKJpPT+/aJrv9LMzAR1dTfyrwKApY0NYSgiJNqBY6noAmVwQEIN5IKlVMF9odfaL/6PGH/z+nV0seTDZRQKZZqrq/2oUaX37+ecPbfy358Sw0xoNHRNyB37UaOQD7Qtv5fcRReLPvBDs4LCwuSDw5AjVVBXd7ugcByH/d+4fQBAMzND/sHPIrcR3tWia9eQ9AQA/oMHb0LMVkuLQgPdYECnMkt3fL8pp6MuBos+y9uhIJPXtstpNoNM6XDDUons3vVHf9yrqymvH2RCHeZgPmqSlaEJVTs7Vp9GoVhvIGUAtb/ubjGQolJehoGUQS8knRgXm1qb9Pt3h+3WxMRwx47lwcFeLi6fmJqadjr++vXrmzdvnjZtmqGh4YQJE6jUHvuBYjB9Eay0ugNCoxDGqtL79xP37FU42afERiUUCA7F7Caio1QkaH2Y5/tLkuIPIZ/djfyr8j44wn3JeddWfhYRCtYRjBEdRhRVP3oVHf/15nAFP2D1o0fjOGzCNpZ95oy5xRB0r+XrQlBj23A0ROOzBuVb6uUkFxd/nZ8Pd+6AnG2AbjDgzurpqsgsjT1HyiPiC7OVBQ/N8nZIDG/H13k85tq6vfOtmO18PFfynu5ec7ZBICZaco8BAARE/oPjwVR921pBKpH98tO9Y1FXt6f76lRpfTT+WyUGLYQqofEHClcOGjBD46MPGky0tBxcVlZ25cqVuLi4toFZ8tTX12dlZaExkZGRHh4eAJCWllZRUTFmzBgLCwtzc3McL4/BdARWWt3BHw/56AIZq0rv31/qOgcAaGZmcxa85/beeweioxXCtuSRSCTe/5iNNJb7Qq/5i/95j3tHlTQQNra2ljY2n0VuEwoEWafSBXV13v+Yfb6oEJ0HRBYstKY2nhIAwPAdI3RhP2qUgiCzsLYGAKq+vs/ygNTvE4lgLwDw8lmKLsJD1iH1yXGZNtPd3XrouyHL/qWtvfUI50pL+ULheAuLOzU1QKP9b+G4sOx7T5pakMwyMxjQxfW7Er7DdrNDF1V8YSXvKQCM5FgZGg8EAAaLTgyzYppaMkyIYQ0C8Y/fXQuNm6+wWrO4VV5mea50uvVzGVo2MfxnqqGeo/O7mu1TM4ou8o9FXdX1XegGdmoN1jg0XndHHywsLLZv3x4cHKxEbzk6OhYXF6NrJvOVaI6KipIfU1hYCABCofDEiRPW1tZMJpNGo5mYmGh9wxhMnwMrLZ0jbmra9cVGdB2wdg0A5J7PRC/3pSajpA8Pf/tdyQplpaVEQJVPwMcA8OiPP9XaQ2TsbnTOUVBX9+3WVx461/nzkNL6LHIbkoDnfzppYW1tbjFEzUf8CxRrjxZHMe/I3cliTyRcoov8fJHMQv9HsfAgFx3PcZmGvKVXcjp0b/V+8isqnr14wRcKQ86f569bFzJpUuz+/ctY1jT9/p7JhVqRWcrpNMXD8h2u6KIgk4fMV/6bpg+2NFQY5v6vcYRF6vtNOYXZD38rqGwWtyoYik7FFSKZ5bnSae7H48kUkucKp0re00jf4wBwNPJS5EmfAdT+jUJxs1hiaDIQAB7crAaA0ZOsFdyRyAVpSh8kbzmTSmTCWhEAGJoMfHCzmjpIz2Y4bQC1P2rn36kBAMZYuom5AZlCaha31lY8QxOry4QDqBTCg9koFJffq2t7X2JjjcIX/Ds1jLH0tm+FAv2AtGj0550atBCqhMYfKFzZlYweXdFhyvXWjh07LCwsUN4H4hCivb19aWkpuqa9/tctEAgOHjxITFy1alVgYCAAcLnc58+fMxgMY2Nj7HzEvG1gpaUTbuRf/eKTYHRNuAiJDKJGxsaoJfd8psGgQUnxhzryCaYmHn7H2Jg4upiXlTV9zmxu4Q0Fx1ynUCiUfanJyJCW+n3iIj9f+1GjZs31eJWIwdvni107C65cQS99lgfIh2HdyL+qugKj6usjUxlaijNt2q4vNpbev08zM0v7+SJSVPajRhHmNHgdCw8A/fX00MXD334vvX9f1Ph867/Xq/WYvYTy+noDPb19BQW55eX8desSbt5sbGmJ8fCIra0FgHn2dG6QGjKrVyVxYLDoyOfYKHyhoLQeFFWhizn+YwkFY8U0ZbvZFWY/bBCIn1Q2WjFN0765Wpj9kO1m93tRFVJmRjTqktApSMxJJbLzh2/9cuIe6rJimhI6T1gr2uyVAgAjOVa/FVQCwPqEBcZmBqiRYCTHau3uudxLf2TEF6GWuNBMtpsdkpVIKRKDPVc6zVgyGokwtDFicSumaXjKEuXvhvJA+LZoljW+O+lIbyHPIJVKlRdJycnJACAUCl+8eFFbW4saeby/xfZZW7/KWfPjjz/KL3j69Gm0JpfLNTc3Nzc3x2cbMW8w+OyhTkB5StF/qMV9odeX37wythPOsgPfRHtOmpL6fSKRTR5lb2dNfCWtvt4c/t+4fZY2NkiiFVy+4jlpyqY1a4nxtdWPVdyS/ahRPssD0PUnPn4SiWSYvT2KGyu9fz9g4SKkjexHjfr3li/RMOKE46Y1awuudOjcVOCLXTuJpwtYuAgpqi3ffiOfD+Kj4E/QBRELDwAUCgUdNhTU1S11nROwcBExvqK8XMW79yx1TU2i1tap33//wYkTO1xdHz9/Xvr06e2gIMe/5yJypBtp5XbdI8JqK549qWp8UtWYm1ZC+OPa2nuQo9CKaaqgwDjz7OUHIJDc8VzpZESjNgjEieE/N4tbAaDsbm1GfFGDQMx2s2O72VXyniaG/8zj/u2X/LeCSiumqRGNymQN2R+WBQBGNGpA5D+QM/S3gkphrcjU4i972EiOFXKGZhwqQve1YpqO5FgBQEZ80febf1ZYHC04bdFI5W8LhaTXyRun7YndVlMc6a3Tp0+jI4f29vZKBpuYmFhYWLBYLPTSw8OjsLDw9OnTCQkJkZGRkyZNQu03bvytEisyjFVXVwcGBi5YsGDy5MlsNjstLQ31isXi6upqrT8XBtNTYJuWNqHq6yvEPA1jMm1sbZmjRsqnhqfq6+cUc3/835Gcs+cYI4bPX/xPuqVl4p69APDojz/sR41a8uGyhvr6nLPnTAbTJkyaBAD/PZNedO3anp3/QS3LglZtW78BXoeZK2zDwtoabcPC2lq+/d9bviRi80tu3hrHYR84lnolJ+fsiZ/4vz9wmjpl6swZTlOmEFndd+2LQ2H4E52njmaNJZ6OEIIIhcZxHDZ6ujIej//7g0Uf+DlNmayQGX+mhzuaNX/xP+XbA0LWcqZNOxAdDQCM4cPXfvF/e3b9RygQ1AuF8m+vwnP1BkStrQPIZHpUVMTMmT96e7skJja2tLSEh3fxXKGOYuHVIiO+iLAPITxXOimMeVL1Kgvr+H8MU+iyGNZ+pA5yJs5YMnqD21EAqHggYLKGFF3gA8CspQ5L108FgMb6F78VVKb854q8eclzpZPnCiepRCaVyFZHu/Pv1KDjjVZMUySk+HdqOB5M93+Nk3eJSiUy9BSEfas4/8+40My2ntCo7GWGJlSppBNjlXyJQ9Xp1KzVgw5EBZDeev/993//XVlsQ0dz5eUXAJw8ebK+vp7P5zc2Nl65cgVZsEQikfysiooKdHHmzBkUBEaj0SZOnBgWFobivYRCIQ78wvRFsNLSJiY0mvJizPIjV/77U/k8pfITKRSKQi9VX3+aq+s0V9d2xyswjsNuN6k6hUJpO0thWYVNEmkXlNy0bSN6uo62BwBUff12l6JQKEj/ES3yd1f97e1m6pqaWPv3JyxYEDt3bsj582FTp9Zs2GCm41SrPeJVlHfnyWNiboAubv1c5rnibzoMRVC1XQeJG0MTKjJrFV3gDxtjnnusBAAeFFWhDBSNT8Xwd2MYAEyePxwAkIPSxNyAaqh37vtbaKISyu6+cm/N8B6DLoZPeHVW7uqZ32d5v8rwbkSjImeikkwWAGBKtVR+O+UM0qM9b9EkRVz3lwRgsVjygkljkOcReQzR0UUAsLKyOn36NJfLbWhouHPnzuzZs1H7nTt30IVAIMjKygoOfhWJ4ebmBgAcDsfExGTatGnEOhhMLwcrLQxGc5DGurp8+Sxb28DTp/nr1o23sDDo39+gvw7TCnSKdssdqpKjgUwhIcFUyXvaKBTLJ9C6euaVRaTdxBAAYGhCbRCInwvFTY3NCl2WDBN07LEj9qw7j/x9IzlWrBlDlRw2pBroKVxQ+r8KDBI9++u+I5w6l1D9gOTtEKGBQQuhO7NWn0Nefnl7exPtwcHB06ZNe/ToUXl5eVZWFnI1CoVC1FtQUIAukNLKzMwMDw93d3c3MTEZM2YMi8XC+SYwvQ2stDAYTahravrgxInTvr4AsCknZ4er69WKCgqJ5Ky9DKt96+N2+uLRyD137vtbC4PZ6FRg2d1aIvJpiK0xMbiS9xT57JrFrchkxZlnjzyAlbynw50skfcQdRnR2j+q9qSqkQiNZ7KGSCUyJUprsNWrwLJbuWVI8/1l5VoyWq0nVTcQvl2YpmzeUy3/cN+YIpjI+Yiut2/fji4GDhwYGRl55coVoVBYUFBAuBEbGhoAgAi3j4mJQXODg4NNTExsbW2te1+wAeZtAystDEY96pqa9hcWrmazL/L5X+fn/+jtncPn2xob2xobdz5ZS/TCD9S5H49HZwZzj5XkHiuRP10IAMvCZyj4474OSHf/17is/91GL5Evb9qikceiruYeKzF/18hmxOBvAk+DXNhWR/xWUEk10Ms8/LcaoIyxr1KC/Xr2gbnNOxwPJjpXmBFfVFNeT7c1RrpwJEe9FPYax7PLg8xaCUVrJDLFsgEqzH1D5JS6UKlUDw+Pth5DKysrd3d3Pp+PUk4wGAzUTpi+MJgeBystDEZVRK2ttx8/BoCIvDxXBiNi5synYrGzjY0W7VgEvSEWXi3IFNJniQuTdvyC7EzyyRQCIv+hkLbUiEZF5wrRy6UbpqKwranvjRA9a86ILyKsU0Y06pLQye3ecbClISGekGxCHsyyklqOBxOl7AKAjPgitpsdx4O5dvdc5G0k9jaSY+W/abpaj0kEwufn5//xxx9eXl4GBgZthyUnJw8dOtTZ2bmjdZT7EHtPXHzvx9nZmXifhUKhkZERAIjF4tmzZ//yyy8tbUpgYTDdT7+XL1/29B76ACQSCQBuVj3q6Y1gNGSCpXVXPD4SmexRQ0PGgwcoDenKM2fM9PV/WLxYrUVI3VXfUF2l9aSqEcWts2YMlT+Fh+oeqpLDUx4e9/HT6ufFl/+g2xqb27yjsCbKaMV2s/MK5vx69gEAzPEfq5AYQiqRFV3k11Y8G8mxGjbGHBnDmsWt3Et/KGwSOSiLLvDN3zWaOMcOBYoBAAosq+Q9vZVbBgBDR5shqSeVyB6X1z+4WSV61kxk0pLftqnFICarw7xxg/Ro/qxd6BfJz88vNTWVz+fb2tq2HUkikXx8fFDGqY4gkUhJ3C86Co0PYscrmatFuu4J7VWIxWI9PT0ymSyVSidPfqXRi4qKZIWdF/nGqAWJHQRv3O+PjsA2LQymE0StrZtyctLu3uWvW7fz8uUjXO5JHx8NYt67/idJR3kvB1satqulNCtWyGQNAVbncwdbGiqcUiQgU0htpw+g9m/bSKaQmKwhhDZCkV5ErxXTVCEMn0whtW2U37ZyCJmlFTo1a2nrRkHs+Lfh45DL5aL8qDExMc7OzmQyeeLEiQp5vDCYHgErLQxGGW5HjwJA/HvvxV6/nnDzJnf1al2nb8D0TmyMHJQPEIlEt2/ftrKykrdylZeXA4C1tTVKUyeRSB49emRgYGD2OvmwjZFDRUMnKSowyqmurg4LCyNKA8XFxSF/4t69e0NCQh4+1LDWJAajLXCOeAymfT44cWLbpUtbZs68yOdXNjZyV68OmjgRy6wuwmDR2W528hWs+wT9gDR/RIgSy9C2bdsMDQ1dXFwYDMacOXOI9u+++47BYBw48Mp1tXPnTgaDceHCBfRSJpPNHxHSD/8d1ggejyeVSgHA2NiYkFnu7u4bNmxARYHIZHJsbOzJkyd7cpcYDFZaGExbQjMzz5WWjhg8OCIvbziNFjt37rghQxzNzbuY8B0DALO8HZbvcCUyhfYVlGd2OHfuXEREhI+PD5/Pv3z5MlEEEACio6PpdHpISEh5eXlxcXFERISrq6ufnx8xQCaTrWLrNoRIT0/Pw8NDoSJh30UsFmdmZvr5+fn6+paUlAAAlUpdtWrVqlWrsrOzt27dmpCQ4Ovry+VyAYBMJuOC1pgeB39yYDCvkMhkycXF5fX1dSJR4OnTnzk7h0yaBABrOJyezUSK6VkG6dGUD0hKSgKA3bt329raOjs779q1i+iiUCjXrl0DgBUrVri5udHp9FOnTmlwC42RSV/a2dkJBAJfX9/o6GhkBOq7cLnc6dOnh4eHIyPWV199hdoDAwMDAwONjIxCQkJQfof4+G46UoDBdApWWhgMAMC50lKJTLY+OxulITU3MJC+fBnj4YHdhZhOA+FTU1PpdDoResVm/60Wlq2tbWxsbE5OTk1NTXZ2dtusEDKZzJ+1C3TGkydPiH3Onz9fLBbr7l66QCqV5ufnI404fPhw1Eij0VatWhUX97fyXITM4nA4sbGx3b9VDKZdsNLCvO3kV1SIWls9k5MTbt5MWLAgt7zcQE/vdlAQtmNhAIBuYKfKMAeHv/yhhOQiMDVtvxKRBjdSFxK5X11d3enTp+3t7QFg4sSJfcibVl1dnZCQMHny5NDQUHlHYUJCwtmzZwMDAxUKTo8fPx5eyyxUxBqD6Q3gs4eYtxdRaytfKHRJTLwcEBAxc2bI+fOyLVv+/PRTHI+FQfQD0qLRn3eaIsHV1TUnJ0ckEiF7FTpvSFBXV+fv7+/o6FhbW+vm5sbj8do1a5FIpIOFQS9BJ+kYLCwsjh49euLEiffeew+1JCQkzJw5k8nUJJFH94AKGhIvf/zxR1TrOjAwUGGkVCpFuiowMNDa2nrOnDlYZmF6FfgTBfOWkl9RYbhzp6Ge3mwG4/20tI0uLo0bNwIAllkYAhVLHLq4uABAeno6ennkyBGiSyKRzJ49G/VmZ2fX1NSsWLGi3UV0HRpPJpO9vb2RQSs/P//gwYO9MHJLKBQmJCSg6xkzZqALe3v7mJiYrVu3tjtFKpWGhIQQszw8PLDMwvQ2sE0L89ZxrrQ08PRp/rp1QwYN2pST88PixaKWFgqJhDUWRp6BlEEqjty4cePly5f9/f1RgLb82cMDBw4UFxfHxsaiJFtr167ds2ePp6en/PFDeSgkPQ2KIapLY2MjukhNTb1w4cLhw4eJis49glQqLSkpiY+PR1FWbDabxWJRqdTIyEgWi6Vkb0hmFRQUFBQUWFtbt62KiMH0BrDSwrxFnCst/eHOnR2uro+fP0dRWaPNzMz09XHYO6YtH43/VolBa+rUqQCA/IAUCuXUqVPp6ekZGRmenp7e3t4ffvjh1KlTRSLR1atX165dGxQUhGbt3Lmzrq4uIyOjXaWlPGu8FvHw8GCxWCjbp0DQfjmg7uTw4cMHDx4kXhYWFiJHoXLlRMgsAOBwOPJpzNQln8uLS7uk0Ojp4jh1LMPWcjDRUidsXPdNGgAEe89wZnWT47W86omZiaEBdUCnI4mn6M7tYVQBKy31mGBp3dNbeKPovlKSlpbJxcVDjY1TSko+4XCS/vlPRzrd0dy8m+6O6WuYUi2VD1izZs2aNWuIlwYGBn5+foR+IioeKpQ+NDAwUF4MEd36qbhK7R2rCRG5ha4BoLq6ms/nK6mKrV1Q8Zzt27cDwOLFi5HS8vHx8fLyUjF6rKysTP6kYVechn9UP03NVizLjVrWLp0VHbqEQiEDgEjcjBo9XRydO6vd1HVE4uaNcaf2HMvlp29XRWkRT9E928OoDlZaaiOTKf6DxGgGicTufFAb0g8e8lrVfqRLRxRVVcOKFf4//XQvOHg2g/HsxQs/R0cNbo15S+gHJG+HiB6pFajr0Hh5UOQWupZKpcjE5e7uvmnTJt2dTxSLxWfOnElMTES2tPfff5/FYtxt25kAACAASURBVJmYmCQkJAwfPlyt+zKZzISEhPj4eC2eNHRkWo1hWAJAXX1jTsFvALDnWK79u+ZrvGcBgAF1gI8bGwCGWnR+mLTrpF/i7jmW2w03wugaHJiC6WOoK7PEra1rz2eCTDZYX390XNxH48bZvPOOqLVVR9vDvAGgyHRSD0FsoDspKytDuUCzsrIWLVqUn5+voxv98MMPUVFRhMuyuroaXaDALFVWkEqlCQkJKJCfxWLFxcVpMQT+83+5J+9Ynrxj+YW4UH76dtQYEnVMJG4GABND/Z3BXjuDvcYNt5GfVSdsLOZV1gkbFVYrr3pSXvUEzUVj2r2pRCIt5lUqrFAnbORVvAr4u1dWXV71pO2UtneURyRuzufy0N3bvaNEongYgtiwkrkYDcA2LcwbTn8y2d2OkR6xdfq2bT/dv+81cqR9bKz3mDGbpk9/IBA429h0vkSvgU6nB7Fx5uu3Ai3+oM3ogzsdw2QyT58+TURunT9/XltuRGTEunTpEsoyOn/+/IMHD9JotICAgPfee09d4xkRm3Xr1i1dJ82ytRwcsdIzIj4DANIvcf08OI9qhQyvzQCQFBng58EBgL1puYdOXiEkFJ1mFB26BHUBABq8dumse2XVyELmyLT6/F/u3rOdCHfkwvX7URexwrXEz2wtB6/7Jo1waHqGxgGArPAAANQJG/cfv7T/xC81goa2d0TwKmq3HcpAOweA2A1LkU0O3fHwmas7Es+j6RErPT+cP5mIRSM2nHaxCA2oyY4yMzHU6vv6NoKVFuYNh0IibZk5I93B4af794MmTuQLhY+fP39/zJjQ8+fv1tXlL19++NatoIkT+8TBQ8IAgMFoHSJyKzExcdOmTaiRx+NpnHOruro6Li4uKytLfikLC4uEhAQU8K4u8iHw3cPE0UOV9JZXPQmJOgavfY65Rb/XCBr8wxMV4ujlPYDFvEr/8ERjQ+o8Z0cA2Bh3ilBgSK7VCBq8wvZzU8IVbwYAABKJlO62Qb6l3TsijUWsGRJ1zHOaIxowNeBredNaRHxGRHwGNyXckWnVdsOOTCsss7RCH/h06f3U1QnLy7sUwSoSicvLqyQSiba2hFEkJ+dyQMAHY8e6Hz2a9v7744YMSSkp+czZ+fCtWyHnzzdLpaGZmeX19T29SwymJ0GRWydPniTSbvn6+m7evFmzAj5nz54lZBaNRhOJROhaM5kFAFu2bNFWCLyKjB72KsFExuXitr3fJeegi/To1ck7lvNORvq4sWM3LK2sU/xLkhQZ0HItjnBHoonIeefItIrdsJSbEi4rPODKGQkASAkl71ieFBmAxvPTtyOD1vW7ZcSCssIDNdlR6KVX2H7529FpRi3X4rgp4bEblqKWq3f4IOfBjN2wVFZ4oPGX3ajXPzyx7Yb56duJDWC6CFZaWmDdum8YDK+urJCefonB8Hr0qLbzoRjNePbMytDQJTHRwdzcc/jwAWRy48aN3mPGJNy8GTJp0u3Hj2OvXweA0MzMc6WlPb1XDKYnITx6kZGRoE7kFo/Hi46OJg5gzp8/HwA4HE5CQkJmZqbGAosgLCyMRqP1nmI73nOc0AXDa7OFx2fRSRd2Bnut8Z7VNsOCnweHQiHbWg5eu3QWAOQU/CYSN1Mo5N3rl3JTwj9+b+q5/OJ13xwredjJN/a0C0XEggBgZmJYkx3V+MtuBRsYcVjSc9rfjv4cu3ADXYwfYVNe9aRO2Civ7QgcmVZ+Hhxby8Hyhi5MV8DeQ8zbgq2x8eWAgOE02oKUFADIXrYMAG4HBYlaWw/fujWWTjczMIi9fp1jZbXt0qXfnzz5YfHint4yBtOTpKSkbN68uaCgQCAQhIaGZmdnK9QZJMjMzDxy5Ejp628phKNQyRTVkUqlDQ0NJiYmJiYmKSkpRkZG3SazkCkIADxd2jmt7MxiunJGIvdfjaABeeIcmVYX94XKO93QcUXEJIdhyDd36eaDec6OyJnYUaR8W9Bc+QXV8u4dOnkFXbgEfqPQVSdsJJZCpy8xWgQrLV0hEokNDNoP9lTSpRkSiaS5uVWVNTW+tWYTkT+UQuktv2bONjYfnDhRUlubtWxZcW0tyqdl0L//Gg5nDYdTXFs7ZNAg7zFj3v3uO+8xY/IrKt5PSysNCUFjenrvAACkvhBMhultmNEH11RrYi83MjKKi4tD9Qc3bNiANJNYLCaMXsT13bt3CZnF4XCIwo5akVkhISEPHz5MSUlBYquLC6oF4TQ0Nmz/r9+FuNB8Li/tQhERQl7Mq9z+/bnd65cSY3KLfieuieOE7NG2dcJGlm8kANBpRpsC5s6YMPzSzQco8KsjUOhVanZh8o7lqKVO2CgSN8sHaSlhptNwwntoavS34pv6A/VUWQGjGb3lI/CNQSKRZGdf/+KLvcXFPEdH5q5da9zcJhFSIz+fGxeXlpqaTafTNm0K+Pjj99rKl7o64dixvjU1Ai43xdGRSSKxk5Ii/fxe5UpOTs709w/n89NtbS39/DbV1dWbmRmnpmYDgKsr59ChTba27X8dWbfum7S0izU1goiIla6uHBeXQGKR1NRs+SRh8neUfxwfH7fgYG/n1xnxSCS2j49bcvKOthsDgPLyqiNHzkZExCt50h4hfsECiUy2+9dfI/LyuKtXyycvdTQ3rwoLE7W2zrK1XT5hQlhWlrmBQVNrKz0qChnDuphKXos6SV9/YFPTi4565ZOMB7HjuyHnOKbrKPyklJw9JJPJahUrrKt5ouR3r6O0YWlpaXfu3Nm+fbuHh8eMGTP09PQAQCqVLl++fOjQoVOnTk1JSYHXqVn9/PwuXLiwZMmSxYsXa1EMyYfAR0dHozSn3ca5/GJ0+o9OM3KbNLrtgOTMguslZQCwe/3S3euX1gkbZ38SU8yr3HMsV15p1QgayqueIDF04udb8DrS/Fz+Kxn3ffgyFCD/7+9+RC0icXO7qUpXLJqGpFgxr9KRaSWRSMf6RtYIGug0o+rMrzt9Ivcpo5FVbPwIG+Ti3HYow/QdA4bVYFUyo2I0BistLfPhh1tSU7MdHZkZGTFJSec8PUNdXTkXLsTBay1Cp9OSkiJ5vIqQkKiQkKiWlmvyJh9CZl2+nODo2PmRn5ycAgCIjd1gamoUFhYzZUrAnTspZmaKf+m2bTu0Z88xJJU++eQ/ERGqHiB3clpWXMxbu3bprl1rvvhir4tLYEZGzLx5nRz/Li7msVi+jo5MJU/aUxj0719eXx+Rlxc7d+6QQYPqmpoU9JNB//7Ib7hgxIjxFhb7CwsBwMnCgrF7d9DEiR+yWGYGBhqbuFRPe0sisZUMVtJLIrH7Qb+X8BK9xDKrr9D2J6XkR6zZ70a7g9s2SqVSojwOymJKGLFOnDhRWlpaWlp68eJF1FJdXW1hYWFhYZGZmaniTVVEodhORxWmtYt/eGLb8PDjX61EYU8KXC8pI47puU8Zza98gixGESs9FUYyvDavXTorr+gBGrBi0TSQC7f/LjnnnUHUtAtFRLqHOmGjvPRZsSPJzNgwecfypXMmIqXF8o30cWPf5VchQ9r34ctUeboZE4ajiyWfx69ePF3wTIT2v3bpLCT1MDqi5z/53iSKi3mpqdmEpWfePOeRI20jIuKR683fPxwAKioykOBAhqXr1+8SVqLGxqYpUwKQzHJWuZgCMXjoUAsXl8Bjxy6sWeMtP0AikURExDs6MtGuuNwUFsu3uJjX6cp1dcLiYl5s7Aa04Lx5ziyW73ffJXeqtE6ezAWAq1cTkR1r9eoldLqb/JP2LLbGxo0bN95+/Ji1f7+5gcHt1zXpFFjD4QCA0YABEy0ti6qrHz9//iGLtfLMmVqR6MKHH+o6F5dMVqjWR6bCRCyw+jSmVA3NQpr9zsijkEnhzJkz3t7eUqm0paWFSqXOmTPnyJEjNTU1qNfZ2XngwIFduZ0q9GAIPMpW1VENwejQJUg87TmWS0guOs0ozP9vFRjpNKMaQQMxwMeN/fF7UwEAhZwX8ypzCn5TyPVQWVdvazl46lgGmoJ6j2z9yMzEMCkyICzmeI2ggci25ci0UlEnGVAHJEUG+IcnoqgyYnp06BI13hSM+mClpU2QfPH3n0e0LFo0KyIi/tKlm6NHDwMAHx83wq4zadIYAIiIiEcWLwBwc1uDvHtqKZJx44bLL3j1KldBaaEjjYsX/4NoWbFiUUhIVKcrHzt2AQCePn2WnPzq2+qYMYzU1OxOY7b27z9Bp9PS0/9WsTUt7UIvUVoAYNC//4937zqYm//o7X2utHSevX1HIx3NzR3NzUWtrUn//KeBnt5FPj/Dz29/YWFEXl7Tpk0JN29+PH58L4niwrwxeDt81SNVv4RCYXBwcKnc8duEhISGhoaDBw/a29snJyebmJjExMR8+umnjx8/ptFou3bt0l3dHjKZHBsbe/jw4Y8//ljXMmvqWEbbjAZTxzKszU3krVlI6KAuAKBQyNyU8PKqJ1fv8DMuF3u6OM6ZNKptiPospxE7g70yrhSX/ln7qZ+rfExV0dGN1++WpV0oor1j4MoZOWnMsLSLRQBgZEAFAFvLwdyU8IRTVwBgksOw5lYJhUL28+D4eXBQcNgkh2HydySegpBoChsGAD8PztSxDLThkbb0RbPGj7IdQjwjGtw9tYbeKrDS0j5IVCEYDCsASEo6t3NnMAB4eroQXRQKxdWVg9x/BHQ6LSIifvXqJW09gO3i6MgkRA+FQqHTabm5RQpj7t0rAwAm8y8DzIwZEzpaUD6n19WrXABo62q8dOmmErNWeXlVTY0AAJANj2DPnmO7d69X+jTdyjdubnVNTe+npV3k8xUCttpi0L8/KpV4OSBgkpWVZ3JyxMyZP5eVhZw/v9TB4fCtWzNsbbuzXnWnFi8KiSKR4fRsGtLF4LZBejR/1i6NV+gH/ZT0dt1q1RHV1dUff/wxUScHIRQKkRuxtLQUOQqZTOaZM2eEQqFAIEAyi8fj/fe//w0LC9NKhBYyqq1cuZLFYpHJ5MDAwK6v2Sm2loNVCSo3oA5QyMZOzG3brjCGyNIuD4VCdmYx5W1mCus4Mq3kQ74IFGbJ76QrG1b+FBiNwUeZtAmKrLp69Q7Rcvv2AwDw9HSxtjYHgMOHzxBdEokkJ6fA1fWv3+zs7L3Z2XsBwM9vs/yy16+XENcZGZflu4qLeYQ2EonENTWCWbOcFHaFdJX8Ipcu3ezoEeRzek2dygKAmppsmawQ/dfY+ItMVtiuzCLWt7W1pNNpjo5MYpZMVtjScq23VeamkEgUEqlWJOKuXt3Q3JxfUaHKLGcbGwqJ1LhxY9jUqT/cuTObwRC1tIScP9/Q3JxcXKzdXFxITmk2MdBpnxZ38rbRRd+rP2tXV6avYh/U7B9LV0QYl8tdsGCBgswisLe3j4mJMZf7LmFiYoJyx0ul0jVr1mRlZbm5uXU9VIvwXQYGBvJ4nUc4YDB9Aqy0tImjI5NOp8nLqbS0C6idQqGsXbs0J6eAEEbXr98FABeXccRgQ0N9R0cmGkY47OC1UQoAJBLJ3bt8hZvev1+OLpB+kjebIQwMqK6unLS0i8St5f16SE4ROe4zMq4QXUuXzgGA/fuPEy0LF64nkdgi0auE0cRmJBJJXt5ftrTVqxcXF/Pq6oToZXl5lZ7elDlzgtu8YT2Mmb7+7aCgk/fvuyQmbs3LU32iQf/+KHD+pI/Pvbq6IYMGOVlY+P/0042qqnOlpR+cONF2SnGtltPSaqzDMDqFacpWuNAiOjJopaWlKTcdxcXFOTs7t+vCa2lpsbOzQ9fh4eHBwZr/M1cIgR82bFinUzCYPgFWWlpm9erFOTkFLJZvcnImi+W7Z88xV1fOqFG2AODtPQcAbGw8t2075Oe3ycUlkE6nrV6tGIoYHR1Kp9P8/cORUkEeRj+/TXv3pjk5LautFSqMZ7F8t207tG3bIU/PUEdHprf37La7+vRTv5oagY2N5969aSyWr7zLcvz4EQAwZUrA3r1p69Z9s2PHX+duzMxMHB2ZERHxc+YEJydn+vltyskpiI3dgPyVPj5uxcU8P79NycmZ6IgiMfHDD+cDAJ3utm3bob1706ZMCQCA5ORuPaGtOkxT09i5c39YvPiDEyckHZx47wiD/v3n2dv/+emnj58/HzJo0Go2e2NOTl1TU3l9vWV0dF1TE1qwvL6etX8/TJ+u7t66IqfoBnTNJmI0ph+QZtutkMlkMplstt0KCkntHEWD9AbpYmNKiI6OjorqJGrzRHtfHhBUKjUuLg5lkweAGTNmaLyTmJiYbi62o2v46dv56dt3r/fufCjmjQYrLS3z5ZcruNyUmTOdUJRSRMTK8+d3oyh4Z2dWTU326tWL9+8/kZtbtHbt0nYzMlAolOPHv4LXPsTk5O0+Pm6pqdmHDp1MSoqMjg5VGB8RsTIiIj4iIn7t2qUXL+5rN5PCvHnOfH76rFlOKBDex8eN6HJ2ZiUlRQJASEiUvf27FRUZ8hOLio5evpxgZmbs7x9eV1eflBQZFPRP1HXo0Ga0sa+++t++ff+HFkHY2lo2Nv4SG7th//4TO3YkenvP5nLbedJegp+j4wxbW9b+/bnl5cIXHSapUgKFRLI1Nq4KCzMZOHCMmdmWmTOPcLkAYKinpxcZea609MCNGwAAs2atO1+irpjTDJmscNHoyM7HYbTKKvYBIj2VTCYLdNqr7gr+rG+7zXUokUjt7e1TU1M7HXn8+HHlGbw8PDyys7NXrVq1+HVlhYSEBKFQ8WuhckJDQzkczhsjs+B1RBQu0ozp9/Lly57eQx8A5f27WfVogqW1wp+zrVsztmxRzJ7SPbRNOqoiCllGewoSiX2z6lH33GuCpXVHGRoBQCKT7bx8ed3kybt//dWUSkX5HbrC3oICUyoVAPx/+qkyLMwqOproch02+JTPRAM9VQ+jdCWxVkLRJzguvttAgfDyv2YkEimJ+8XzlvaDn9rSD/opCdLSYhotABAKG319IwWCBhXHJyQkqF64EKWVB4DIyEgPD4/OdiIUCARE1BcAaF1mkUgkVKEZo0VI7CDoOPMtRh589rBLIJ26desrO9CXX87v10/ZuSFM74RCIn05Y8YHJ06klJTEzp3b9QWRViuurY2dOzevvFy+K6fsCTM2987q6WYGKiVlxom1+goKMgsAZDIZiURS/UfQbbHwVVVPAgK+NjExLC0t9/X1BYCxY8caGRmhXiaTSZTTsbCw0GA/V668CvcMDw8/c+bM9u3bOzqWKBQKfX19BQIBUnJvhikLg1EAKy3Nefny5bZtZ2fOnEm0bNt2Fl1s3jyfTMaSq4/xCYfzCYcDAOMOHLjw4YddrL0Dr3Nxjd2/X6G9RtQ8dv8vx72dnN/tat4ajXUYRrvYGDko6apoKOmot0ewtBycmfk1AJBIbF2UuNm+ffvcuXMjIyMFAgGRBLUthMwCgPj4+Li4OK3vBIPpDeA4LQ1pK7MAYOZrtm8/u3VrxtatGS9e6NCyunv3ej4/XYOJXl4z+Px0lHgCQ4ByvrskJpobGBjq6WkloKq8vr6kvVOHNaJml8NXk4srVVmkK3HxGmcbx6hOPyDNHxHSrhtFJpPNHxHST4W/tAMpypKt9zk97ezsfPLkSXd395iYGGTQqq6ulo/cEovFhMxCsVk9tlcMRsfgOC2VaBuntXVrhoLMape817kDeiqWqzfTe+K05MmvqBhOo31w4oSZvv4Pr8N7NUbU2lonEl2tqAAA/w8+SPphe8aDGqI3t0ywmj30yxnDO11HeTyW8vAd7EDUNUHseOW/Xar4EIPY8RoH5GkswkgkdvfE2Uil0vnz5wsEAvnIrYSEhIMHD3ZDCDyO09IFOE5LdbD3UG1IJPaWLVtUHDxz5sy8vLytW7d2T3lUTNdxtrFxO3q0pLY2a9mytvWn1cWgf38DY2NbY2MA8C8p8XO08nO00tJOu8r3m3I66mKw6LO8HRQGOLoMBQDWjKEDqB1WH5JKZEUX+bUVz2rK69EUxlj6YMseO3vVKBTrDaQo2XDXGUhRKS/DQMqgF5LnSgYcKFzZ5wxXqnPhwgVkvgoPD09PT9+5c6eJiUlgYOCoUaMmT56Mw7MwbzZYaanHzapHstbWM4n/VcWgBQB5eXleq1Z4rVqh4329abx8+fJ0fAK6XrBieT9St7q5f1i8WI9M3v3rrxF5efx165BO6kE0/gBWbtAqzH6oZO4sbweFAeilEY268qs5TNaQtlMqeU93rznbIBArTFm6Yeos7w7DmHSEVCI7f/hWRnzR9nRfnSqtj8Z/2+nXenVD49WiT8TqeXh4GBoaositGzdubNy4cf/+/QDg7NxJuXoM5g0AKy31ePnypeoyi6Kvq9qrbzCExiLe5NOHvofu1Vtm+vrFtbUReXmxc+ca6Ol13bKlO7ryERsQ+aroePHlP5Ak8lzpZG7zDgCYWvxlp2G72dFtjWvK66v4wkre0waBOOU/V8JTFDPuNotbCZllRKNOXzz61s9llbynAHAs6qqB0UCOh2KZNp0irBVlxCvWANU6dAM7tQbXiJSpWyX0CTmlHGdn58OHDy9ZsqSlpeXGjRuZmZkeHh5isVh3NaoB+Q1VcG+R2EHYvYjRHVhpqcfp+AQVZVY/MvniufPYmqU6bTUWAr3sZr3laG7euHHj7cePWfv3z7K17XrAVvfTaYSWvPRBSmvy/OFtPX2OLkOJkd9vyinMfljJe9osblUwFJ2KK0Qyy3Ol09yPx5MpJM8VTk+qGjd7pQDA8ZhryO3I4z5+Wv2cMZZuaDLwwc1qABg9yZpM+dvPVCqR3bv+iDpIT95y1ixu5V76AwBYM4ZyL/1BNdQbPsFiALW/VCJ7XF6PJJ0V03SIrTGZQnpS1fjr2Qdo4q9nH4zkWBFLNQrF5ffqAABNJ9YnNtbc1FrJe2rFNLVidnIytB+QFo3+XMU4FWTWOlgY9BI6HK+xA7FP6DChUPjxxx+3tLQAAIfDmTNnDkq7pUrOLY3p5KdDIpGcXv0beRV1xE2ElhYdbQbz1oKVlhqodXogNycHyyzVkTSJzx5NUqJiu19vGfTvvzUvz8HcfJ+nZ35FBTqZ2P30qk9QBouONFmj8IWC0qoue3WsbI7/WEI5DbY0nLXUIfdYSYNAXPFAwGQNuZR2tzD7IdvN7veiKsIANjdgPHIvEi4/NN2IRl0SOsVpNoNMITUKXySG/wwAIzlWvxVUAsD6hAXGZgZIyRGM5Fit/saNf6eGWCQjvqimvJ7JGiKVyPasO4/mImYtdZi3fLyhCRUA0MaIxY1o1K8zlyl/N+QzwquCTn2IvR+BQCB/0rClpQVlN0U5tzZv3qxZ7i7NQLoKABT+cRGHfGVF8YBjvTFaAmd5UAPVDVooPEvH23lDkDSJ0w8eUi6zCFASjdOHvk8/eKgbjs2e++CDHxYvfj8tzSUxsby+Xte3U5fuEWG1Fc+eVDVW8p7mppUci7qKGk3MDRSGIYFixTRVUGCjp1iji6fVf8WDE85KIxq1QSA+FnW1WdwKAGV3a5FCmrXUYdZShwaBODH856KLf6uq/ltB5UiOlRGNOmyM+f6wLHTTgMh/sN3sUO+TykZTi0EjOa9OHozkWDFYdAA4f/gWsUk0OPdYyfebf1ZY3IhGtWKazg0Yr/xt0aCmYRcn9vWa4kwmMyEhgThpSKVSY2JiaDQaABQUFCxYsEB5wR/tQKGQ2EEkdpBMVoj+U+gn2klOK0nsIDBQ/D3HYDQA27QwPQY6WwBt3IWd8sq+FZ8AAAtWBuouLz+FRAKAktpa7urVlY2NjS0tjubdmoRMR7HwapERX6QQ8OS50knB3/ekqhFdDHdSrO9kMexVQq/aimfy7ZEnfQZQ+8/xH7tu+mEAeHCz2tH53aILfACYtdRh6fqpaFjusZLjMdfkHZ2eK508Vzih69XR7tVlQtvRZoYmVCumKRJwlbynHA+m/6bpyNzlv2n6YEtDqUSGnoLtZrd8hysAcObZx4Vm/lZQ2SgUI7MW4rPEhaoclgx02qvB+fZOzVpvngNRKBQmJiaGhoaSyWQWiyWfnhTl3NqxY0dWVlZkZKTuTiCSyeSOjFgdgYZhExdGK2ClpSqqZ3bABq1O0VhjydM9estMX78qLGzbpUsReXm+Dg69J2CrRz5W2W52nHn2js7vKrQT0qTo4kNCJCEIryKKtUcQpq8B1P5WTNNK3tOc5OLRk6xzj5UAwIOiKpRgooovBAD5w4wAMHn+X+nHTMwNqsuEad9cVX6OEgAel78ySc7wHoMuRk96ZWy7dPweId2smKaqyCxTapcKhppSLZ+KqzSY2GvlVEcQWeD5fH67SbOoVOr27dvff/99VFQRpd0KDQ3VVuQW6XWYgWZvGjHrL8mFA+cx6oOVlko4jh0L6siCCZbWOtxNX4ZOpwcFBUHXNJY8hN7KzMy8fv26kvt28UYRM2euZrNDMzO/cXOjdG/WCXXRbrbSgMh/qHJsEAmmBoFYwUSUk1xMDCAaG4VixfkAklZF55Elw8SSoSzHPRF3NZJjxZoxlHBuaozy2xF4O0RonLCx09D4NyaxlnyxHeUQtatjYmIEAoF2I7e08k4qmLgwGLXASksluLdvq5h6FCWFx2lz2yKVSlGFNW1pLHnQmh4eHqGhoe+8805nw9XmyxkzimtrWfv3A8Cm6dO7J+lD3/q4nbZoJBI6ad9c9V4/1dCEKpXIyu7WEgHmQ2z/SktGCLJmcSs6Nujq50jYt4Y7WSLDWCXvqVjUYmzWfqzMk6pGIjQeBbwrUVrE3Ysu8NE5xL+sXEtGq/WkTFM2QLxaUxTQUWh8b7N4BQcHy4fAq+IcnDx5MspxiiK3UNlp3e8Ug9EtWGlpH9X9jG8JOtVYBGjxmJgYANCF3ho1eLD3mDFbZ83akpvLsbLyc3TU7vpq0as+UBHT/zn6fOKtBoG4MPshOsRX9fAp4fhbFj5DIbQr0vf43IDxV07+7mWvXAAAIABJREFUhl4On2ABr+Va7rESg3cGDB1tFheaCX8P25JnAPXVn69LaXepBnqZh2+1u7Gc5OJhDuYcDyY6V5h7rOS5UEy3NUZhW1ZMU3kLXKdQSHqz7VZo5asUhaQnkamdUKC3ySklxMXF+fr62tnZqV5sRz5yi0ajOTh0d8JbDEYXYKWF0SEvX77ctm0b6FhjyaM7vUUhkWI8PNyOHr3I52f4+Wlr2Y7oDbHwakGmkMJTlny/+WdkZyKSKRjRqMvCZyiEdhFHDtHLpRumorCt6f8cLXrW/MuJe39P9DC53TsamlDZbnZI2BH56xsE4uLLf3A8mIYmrwo25x4rqS6z4ngw1+6ei7yNRFDXSI6V/6bpaj0mEQifn5//xx9/eHl5GbR3PC05OXno0KFKEqArN2v16bh4VEbaxMTExMTk5MmTenp6aoW6o8ituXPn0ul0NDEzM7OhoWHx4sW4aA+mj4IrTKsEch2qWFIa27SgJzRWW5An9/PPPx84cKC21syvqDAaMKChuTn47Nn85csN+qtR5oXUXdFd6iqtJ1WN/Ds10KamYUEmDwDULVxYyXtayXtaVlJr/q7RYCsjhQShKPcp283Oe/3UGxceip41z/Efq5AYgiieOH7WMJSJFP6euVR+fCXv6ZVTvw1zMB81yapZLEEPggLLiPylQ0ebIamH0pw+uFkletY8Y8loeWsWylxqajGo3UJDiEF6NH/WLqS0/Pz8UlNT+Xy+ra1t25EkEsnHxyc5OVnJG0UikZK4XzxvaT+MKYjdJQel6mg31AHFZgFASkqKiYlKQW+dLujm5gYA9vb20dHR6kZukUikTnXnX9HuKozEEfEEuMK06mCblqr0oGLoiyCZBa/ljiqonqtMrZ189dVXWtS+zjY2+RUVLomJsxkMcr9+EplM9ej4rv9J0lHey8GWhu1qKc3q56Ds6p3ONTShdlQMkUwhtZ0+gNq/3TWtmKaEb9HQBOQfZLClIXGokFi5o+TvTNYQ6CwiiJBZWqFTs5a2bhTEju+ej0P5EPjExMSwsLCur/nixQsajSYQCEpLSxcsWLBhwwZvb++uL4tAGqudA4Z9wTmL6UNgpYXRCeqKGxUPHGi2uHaZZGWV4efHtrJakJKyYMSINRxOD24G023YGHUSMyQSiW7fvm1lZWVt/dfR4/LycgCwtramUCgAIJFIHj16BACEJYxpyuY9fRM+1+VlFofDCQ0N1cqyFhYWZ8+ejYmJSU1NBQAjI6Our9mRolKQXFhvYbRFrz6s3nvYsmWLuqYUzJsKhUSaZ28/58iRktraGba2dU1NPb2jvgSDRWe72aGk7X2IfkCaPyJEiWVo27ZthoaGLi4uDAZj7ty5RPuRI0cYDMaBA69cTjt37mQwGFevvgpQk8lks+1W9Hsj/g4bGRnZ2dmBOicNVYRMJoeFhaWkpLi7u6M8W1KpNC0tTYOc8iQSG8WxtZsgnuBVmngSG/3Xpd1jMFhpYTCaceHDD4tWrTp5/z49KgqLLdWZ5e2wfIdrR37DXovyEofnzp2LiIjw8fHh8/mXL1+ura0lujZu3Ojo6BgSElJeXl5cXBwREeHq6uond6JCJpOtYr8JoT9kMjk2NnbVqlXalVkETCYTHWEGgJiYmKioqGXLllVXVysMk0qlXC5XoZHQTMoFlgJ/VebBegvTNbDS0j6tra09vYU3lt5z4MBMX58vFEbk5cXOnQsAIvxDf3MZSBmkfEBSUhIA7N6929bW1tnZed++fUQXhUK5ePEiAHh5ebm5udHp9FOnTrVdYZAeTatb7j6EQqGHhwcSN2QyOTAwUNcnBKVS6YULFwAARW4pGLdiYmICAwPlFZgqRizlEHqrizvHvLVgpaVlZs6cuXPnzp7eRR9DrSCt3oOzjU3Nhg3jLSzoUVGbcnJ6ejsYXfHR+G+VR5Tn5ubS6XQzMzP0cty4cfK9ZmZmSUlJxcXFNTU12dnZbbNCyGQyf9Yu7e65eyBiswIDA3k8XvfclEwmnz171sfHB71MTEwkung8Hgrn+vjjjwn5pa1wKxy2hdEYrLTUQPVQrd6cO0MikZSXl5eXl0skEqJRJBIlJycnJyffu3cPXaBIXoL8/Pzy8vK6ujod7aqPHu0009ffmpc3m8H4z+zZ+RUVPb0djPahG9h1OqampsZcrvR4uxm2EBUd/5J0GnGvMRQKJTMzs7q6WixupwiSxsiHwLu7uw8bNkyLiyuHiNyi0Wh79+5FVrRHjx6tWbMGDRAIBCEhId22HwxGOVhpqYrqTquZM2cSOQ56CpFIVF5enp+fn5ycrHAI6NGjRwwGg8Fg/PnnnzI5/P39/f39MzMz0UV+fr58Lwr1PXbsmPxSe/fuDQ0NTU5ORjpMXrqpjgZhrb2Kcx988MPixQtSUlwSE7EP8Q2jH5AWjf680xQJrq6uxcXFIpEIvVT4llJXV+fv7+/o6Ein05cvX04Mk0cmk80fEaKj0HgjI6Pw8PAFCxZMnz6dzWbn5+ejdqFQiLKMagYqmwMAq1at2r59e/enFWUymZmZmUwmEwCEQuGiRYvkaywWFBSkpaV185YwmHbBWR50hVQq7c4/PRKJBB0jR9jb2z9+/Jh4GRwcbGlpiYY9e/YMNT548KBtasHm5mZ00dTURIwkGDBggFAoJJPJZDK5X79+8fHxJSUlRK98FkeJRCIUCgl/ihK2b9+ueiatXhKkJQ+FRBK1tJTU1nJXr779+PFwGq17qiJiugHlgfAELi4uOTk5hw8fXrNmjUQiOXLkCNElkUhmz54NAOnp6Y2NjSwWa+HChSjMSAEdFUOENjY2otq6fFKG8ePHBwYGqrWst7d3Q0MDAKg7URd8++23bRujoqKU2Bfl6fHE+pg3G2zTUgPVcz3MnDmTOCajaz744AMSibRz586XL19KJJKWlhaRSKRQBqSpqamlpaWlpUUmk9FotNTU1Fu3binUFBMIBAKBICgoCF0sWbJEvvfWrVu3bt3icDgAIJVKW1pampub5c9YAcDgwYPRjaRSaUVFBZ1Ot7S0VPh+r0AfjdBSwNbYuCos7OT9+y6JifsL8d/rNwQKSU/FkRs3bnR1dQ0JCWGxWDY2Nvv37ye6Dhw4UFxcHBsba2tr6+jouHbt2pycHCW54zuNvteAioqK06dPJyQkREZGuru702g0AJBKpYQFqKCg4Pjx4+iax+Ox2ezNmzdHR0dnZma2NXoJhULCVhQYGNgbZJZUKi3s4N+dnZ2dUNioZC5xrhAfMMToDmzT0iFbt27Vug0GuR6IL2oymQzZrtLS0tauXUsMW758uZubG4fD0dfXHzx4sPwKBgYGc+bMUfe+7777btvG+/fvA8CTJ0+ampoKCgrQoUtkFUPnrR4/fvzOO++gL+vwOrXjpEmTkPlN9RpH0FsNWgrEzp271MEhNDMzxsOjp/eC6SpEicN2CQ4O9vT0RFZbCoVy/vz57OzspKSkzz//3NvbOy0tbejQoRKJxNTUNCkpiUhrHh0dPWnSJGhjhEbozqxlYWFhYWHBYrE85H4zExISqqurr1y5wufzGQwGakSB7VlZWehlZGQkmpKWllZRUWFra3vgwIH6+vqGhobeoLEQMTEx8n5Defr37//JJzFHj26kUP7mYegoeSlOE4/RBbjuodps3bpVrboxWtQHbm5uFy9eXLNmTXR0NLJRAcChQ4cKCgo4HM6KFSu0daOu8+eff2ZlZRUUFBw6dAgASCRS//79b9y4gd46Pp8/dOjQbdu29dQ7qSOKa2vdjx4FgNKQELVKIqqIjj6GMW0xpVp6O0R0f003Eol08t5XNaKHWlxTrWo8PB7vv//9L5/PLy0tBYCUlBQUCOXh4SGvZlasWLFy5UqxWHzp0iUmk0mj0bRS5VADeDweqrSohKVLZ61fvxRdq5j/vd1huO6hPLjuoepgpaU26lpiQEsS4eXLl2vXrkWpempqatp+Ie79fPHFF/Hx8QDw/PnzqKgo1c8b9gmDFgDUNTXt+OWXrbNm7f71V1cGw9nGRrvrY6XVPfQDkooRWrqARCIdLAx6CVq7u8Z1D6urq83NzVG8qa+vL5HHQV9f/9KlS9BG5RBFCZHPsXu0F5fL/fHHHwkjXEeUlZU9ffoU1DRWKZi4sNKSByst1cFKSxO2bt3q5uaGTEqdkpeXt379ehUDMwkkEklaWlpBQcF3330nkUjEYrFUKr13797Ro0cXLlzo5OTUF5WWSCS6evXqs2fPqqqq3jyZReB29OhFPj/Dz2+evb12V8ZKq3sIYsf39BZ6Y4VpLpcbGBjo5eX13nvvsVgsAMjMzAwPDycGEK7GzZs3I+nD4XAYDMYnn3xCpVK7vgElSKXSsrKymzdvnjp1Clnj2pKevt3ScnC7XZ2CQ7jaZezYsbdv3+7pXfQBsNLSENV9iACQl5cXGhr6zjvvqDJYJBJFR0dHRESgl7du3Wo3RqqPIpFI9u3b9wbLLAA4V1pq8847Dc3NwWfP3li5kkLS2rkTCwuLmpoaba2GeUswow+uqa7tfFwHiMViPT09ZNmqrq62sLCQ762urq6trUXxXsHBwahXwdX466+/kslkoVCIgkcZDMaYMWNYLJbCUlrZIXr54MGDwsLC48ePy2+DRjM6eTKSSh2g8Y1IJHbfNeGw2a/EYkenBzC6AystzVFXbAHAl19+2a9fP+UjLS0tiQQN5ubmJ06cGD16tOa77E3ExsaCOklK+6LMQpwrLfVMTp7NYJz29R3YB62PGAwCpSe1s7NTq5ohl8slYu2fPn2amZkJANXV1QsWLCDG+Pj4hIWFAUB+fv6vv/46ZswYjeO90tLSTp069fnnnyNLmzx6enq5ufHnzhVkZxcCAIczcvfutQrR8aqDlRZGM7DS6hJqiS0AyMvL27hxY/+OY6VlMtn//ve/5cuXjx49et26dQsXLuyLXsK2vHz5cs+ePaCmzIK+EAXfLhKZLPvhQ7aV1ZwjRwInTFjD4fT0jjCYTpBKpQ0NDfJCRz4LfExMjELuGHWprq6Oi4sjYu3buhoRp0+fRrYulJVUFe1FrGBvb6+gt0gkEhGYxeNV3rz5YMQIGxaLqdkjYKWF0QystLqKWgHy0J5xq7y83Nramkwmo2RUEomkqKgIHQV/M1DXlAWvrVnJyclz5sxRJf1p72TcgQO1ItHV5csN9PRwOlNMLyczMzMmJiYlJQUpG3mZtWrVKu3mdKiurjY2NkbBW8HBwQUFBUSXvKuRaCQ2IBaL6+vrFdyOCs5Ke3v76OhoNEZeaXUdrLQwmoGVlhZQK0AeQYTJ7927NyQk5Lvvvvvoo4/67r/hjkAaC9SXWSEhIffv3582bRoAZGRkzJs3Txfb0zXl9fUmVOruX389cOOGjvI+YDBaQSqVzp8/XyAQ0Gg0JLaIc4Val1ntIhQKBQIBj8dDhq6OXI1paWlRUVEAYG9vz2AwgoODzc3NJ0+e3HZBd3f34OBgKysrFRM6gGqpH968v9KYbgArLe2wdevWRYsWqVVEDBm3Tpw4gQra/P777wopRvs0Mpls7969oL7GAgBUGpZICcHlch0dHXWxyW4ABWyhjKYmAwd2MTqepL3geszbgyoR8fKnCAmxxeVyCwsLeypDKaG97t69O3v2bOQTbOtqBAB5TabA06dPL1/e19GRw/9n77zjojjePz4cvSodQQEBaVJEpSgSRAF7Q1RA/GqMKMaGwRob9p4Qg1HBGBMFG1FjQVQsaGwgKKKogIggTToIR7m7/f0xZn7jHRx7x90BOu8/eC1zszOzu7Mzn5155hkup1ltSi6itAjCQZSWyBB0GhECtYWLi4vTl2LKI5zGAp/LLEhsbGxOTs6aNWuUlZXbXEnQacmtqiqorZ1y+nTxjRsgPl4kaWppdS8rq2rtV9xBQLBjJHEM0SXgelJ8PE0oKSnU1zeIKl8Oh4MGtFAgEluiykVUFBUVpaWlvXjxIicnJykp6c6dO6mpqSEhIfzPmjt3bGCgF1p1SEdRtfgrUVoE4SBKS8S0R28BABYtWtR1JQWTyYQe4QW9fPDfjGFrvzIYDGVl5a67OKDfwYM6ysoJ3357N+eKc8/uoVcz5vQ3tNVV43MK/y1v+fzKYDgeSp5HAfJed22CHSP5jqwIUzdaiczhcosF6bRiiws0n9gmc+eOnT9/M4fDoXl/eAVZl1ZaxE6rAyFKS/QIJ7YgSHLxkR2dDegiCx4Lp7EAvetNT0/38/PLy8vrcpKrrrm5vrlZd/58YGLSV1vlRenHsKHm693N+Z/FX07x72vJOFaXRldZd5L1ZiGevkAyC8Zvbm7mGtBCdAmxxTWf2CYnTqwzMzMQKAs0xEWUFkE4uliP1SWAjgmE01sw/u3bt5Eteacd5UIlBO2TlTQ1ZUZGBsxl9OjR165dEyK7DkRZVjanshLo6Wkqyr4o/QgACLud+aObmQidmhK+JPjILJFz/fr11rZnLi8v9/f37+Ri6/Hjx639pKmpmZWV9fHjx7Nnd/bu3UNdXVU4t6VoKx7hS0n4uiFKS1y0X29BoBsqSIcPdCEbLIhwAgsINXRnbm7u7u6emJg4c+ZM4TLtWBJzc4GSUjmzGYU8el/laqghXGr/fV632hkryCg0sERmyvO10U7jtmDHyONpqz82tSxf2kSGwa9ZFnTUqk3Cw8P5/KqhoVFeXt5plRabzUYyEXmf79Gjh46Ojsi9PMCXTiRJEb42yOyhJGjPfCICqRPIwoULJbASDXkcRbTzKmRkZBISEoBQqpHFYmVmZtrb26uoqLSnDJInIilp8ZUrXIF+Nvoxk/vzP5FMIHY54O7UoB0bF/Kx0AIinToEAGhpjejdu3eLP/F6Ae2EQPdaCgoKrWlB4k8LQWYPOxCitCSHSPQWgkt4Qdojv3hFFUTkBW7/yJySkpK8vPCbl3UIcVlZYyMjwecasXb1SGU54Qcw+He6RGl1CHA7ZwaDcfn1vvya58KmIHZbeAAAi8UeOHAu75YVXUJj0YQoLUJngMweSo5169ZVV1cL58yTlxZPx6f2RJVm+xHIHosO9fX1cnJyndN8rTVG9+kD9u1bdD7y16RcFJj4rnx0H10+Z7U5S8gHXWXdkjqyHbVEkWHIwQMotg4lB1NAsI5ZQ1HIeToh6klCQgqXzPqSNBaB0HkgY1qSgMViNTY2UhTV3Pz/ZjqiklydFvGtoywrK3vx4sXt27f5m5h0NuDndXpJjfexRyV1jQAAWx3VtPnubZ1FJhC7DHBAC/3LYDAEfQQSmzpksdhjx64uL6+B/3ZRjcXlSl5TU3PgwIF4hBMnTvj5jQAAuLl98n5sZmYg6NpDxBcwpsVms+nvFE4QFWRMSxI8evTIzc3N2tr63LlzyBE81B/79u1DiuTLkFwScFRx7ty5VatWAQDWrFnT5XZFtNVVy/9heOjVjF+TctM/1JbWNWorCzkT2uaIlwxDhsVhCVtSgmCoyGm2GEjfNF4K8BumFa0tfEJCCpRZXVRjQbg2QCwvL+fy+KChoXHtWjIAAP5dvnya0DKrq0PstDoQorQkwY0bNwAAGRkZcEdVHFyOdN1RLtxoTAILJF1dXeFBcnJyV9wSUYbB+GWUzZz+ht7HHp16UbjQqWWTZIjQE4jwRDKsJTEC7bdzDXjAOUT6j2Ce4yHhtJQQA1rh4bFmZgaXLt3o6v2un5/fyZMn24xmZmawd+/81rbl+VKJb2lTChTYo0ePLqqwuxxEaUmCs2fPAgB0dHSUlZX5REMapf2uqiSAhNUVjrn5J5+f0dHRXVFpQeDg1ukXRe1JpD2GXAQRYqbhCEDL++foKpuW1L1pZ/qifcq5ucU7d861tzdjMC6IKs2OwtPTs02lNW2aR0iIr4zMVzdrdvHixaSkJK5AtB/AvHnziNKSDERpiR0Wi/Xs2TMAwMSJE2me0uJAF6KjtBfXascOdO4lIyMDfWudOHEiOjq6o4rRfmQYjADbtucy2iOnNBTVK5gCbHxOEAIZhpynaVCLFjz0TeNV5CTnu+SLmUG7d+8e/00Pm5ubY2M3fTHXKygBAQG8SgvRaT/jvzyI0hI7lZWVnp6eCQkJw4YNE+J0XkHDq70gYvUf0WJJOpCVK1cGBgbixrAEXsgEomSYMyCCj6E0zTnEQPufJDN12KWprKy8fv16fn5+aGgoAIC/a70RI0bs2LHjq5VZAID+/Vv12KepqWlmZibJwnzNEKVFi40bN0Kf70Kgra0dHx/f2n4XQtCi4sEt68WRfmfD2dkZANBpXVd3CX5fc6O1n0zsdQd6mZ7ec58rUFlNYYCnibRMqz7bGpnNaYnv3j7/8LGSCQCwdTMysdPV0lcVYbEFoqywVty5t2gIz4uCjEoD6yP/OPXN9UqySqIo1BfI4cOHY2NjUUM6e/ZsdXV1GxubESNG6OjoHDt2jCt+eHi4q6vrtm3bJF7SToSioqKTk1OLw1q+vr6SL89XC1FatBBaZkEYDIa4N0XuEvJItEjARX4nQehBC/4DWsnX+BkP2Q4x4ooA/40Nf7DiyMQW5Ut2WnHkyus15UyuU6YtH+wx1UbQwreTRmbz9ePPLkWmiHtIj9cQnhc6w1oHk+eqyLsLvfThyxvWYjKZmZmZaF+d6upqJLM0NTXhHkHS0tJbtmyprKzElZaTk9OWLVvIZxiktQlEMnUoSYjSInRVxC1euwTt6WJnb/40nZ1+9x2URChEo8f/T8o4epua2OvmpJUU5lQWZFfUlDOPb70Tsn8MV2q1lcw9cz6ZV6tpKn4z2frJzbcF2RUAgFO772sZqNm6GgpXTuFIS3x3KTJF3Ln0UhNAQWoo6lcwC4XL6EuVU7yw2ey///47MTER6gMnJ6f9+/cDAFxcXFJSUoYNGzZ06FCuaS91dfU+ffpkZWUBAJYvXz516tSOKHgnpcUJRDJ1KGFIXyUhpKWl2Wx2R5fiy+HRo0cDBgzgv5bzK6dNCy2nkf/f1EKlhYeUFdbCA1s3I6eRZnBQKnzB5VdJBa+SChqZzfKKn7kXj/v9CTyYvXkYnGEcGzSgrLB27YQTAIBjmxM3n/OTV5TNTiuuKPpoYqcrryjz8lGBoqqctXNPrunIRmZzZmqRooqcmb0eXp6cZyUAAHt3o7TEd4qqcub9e8gryjYym8sKaqGkMzDT0DPuLi3DKCusTb/7Dp6YFJ+t0UMFJVVWWFv0thIAAE9H6aOCVZXWVRR9NDDTMDBrY/9vKcAYY7GYpitLOqbxB5PntsejR9fVYWw2++3btwYGBoqKik1NTbt370Y/ofEYV1dX5N6Fl4kTJ54/f37v3r1cHrYILU4gkqlDCUOUliTIzc39448/Dh069PLlyw4pQFlZmYWFBQDA3d0dupwAAGRkZLi5ucHjuLg4aPkEAHBzc8vIyAAA5OXl8ZcyQUFBMDURWqHRoa6uDjp32Ldv38KFCyWZteTpVD2oWT+9V0kFAIDaygYupZWZ8mm0xt7dCCknLX1VR2/T5GtvasqZ8JTE0y+Sr72xdDKA6QAA1DQVfUMGQZGHpvx4f8p5VnJk3U0YCCco153wlVeShUoOYelksOiXUTnPStDU55F1Nx29Tc3s9dgszq9LrqB8AQAe02xGf+egqq4IAOAqmIGZxroTbfRG8xwPCuQxXFD3Wl88TCYzNTX14cOH0E3D4cOH7e3toTJ48+aNl5eXp6cncunCn3Hjxk2ePLlF7+cMhqOIy93V4J1AJFOHEuZrsXTpWC5durR58+YPHz48evSoQwqgpaWlo6MDAEhMTMRLhY5ROIvFgjLL2tq6044Y3b//yVLbwcGhY0vSsUhGhH3Iry4rrM1OK751+jnSQFx2WmwWB44qWToZcCkwp9F94AEckYK8SipQ01QcO3cAlE1H1t1sZDYDADJTi2AWY+cO8JhmA3/KTivGE6wpZ1o6GahpKuoZdz8QehVmOnvzMI9pNjDlyg91Gj1U0IgUnP0EACCZZWCm4ehtCgC4der572tv4onDghmYaQyZZMn/tijICOmUAe2NKChw4Eq4czsVTOYnS77U1NSQkBDkDSshIQEe7NmzJz4+PjQ0FAovOmkqKiq2KLM4okYUN0DScE0gkqlDyUPGtCTBt99+u3jxYnd39w4c2Z44cWJkZCQAIC8vz9DQEABw8eJF9OvFixdXrFgBAMjMzIQh48aN64hi0sLLy+vhw4fx8fFoHO5LRUy28AJxKTKFy+AJmXMhKj/UwQN7dyOun3r0btkwGU4muvtaL/c+BgDIzyw3s9e7EZMOAPCYZjM2aAAAoOht5aukgkuRKbhZGG5fP3/viKK3lcbW2kqq8ho9VG6deg4AyHlW4jTSbMTMfnAM7LutwwEAjcxmKLM8ptlMWzYYAOA0us/+kHjemVBYsDZvyyyHn4Tod9sc1vpSJxDZbPbz58+Tk5Ph+sGHDx9KS0tbW1vDX52cnAICAtC/NNUVgSaKioq4J30ydSh5iNKSBMrKyrW1tfLy8rW1tR1VhgEDBsCDpKQkQ0PDuro6OHYFycjIqKurU1ZWRoHu7v+/83FZWdmRI0dMTEwmTpzYmh16Xl7eyZMn3d3dJaN+HB0dnZycJJBRp0Xy3aqapqLFAH33qX1x8ymIus6n4c9/z73iWmaY/u873qTQ0JequiIc1kq5ntPLXBOKocyUQuiBoraCCQDA5/sAALZD/l/MqesoF72t/H3tTa44vORnfprgHuBlAg/M+3/67Ll/8TUqs4GZBh2Zpats2mYcPgi0GSJOJ5dTfJgxYwa0WIe8ffvWzMxMXV398OHDNjY2ZM9jcYN70idTh5KHKC0JAWfiOtAuHumSlJQUX19fNAE3d+5cONb1/PlzZ2dntD+rjY0NACAvL2/z5s3ItGvevHkrV66cPXs22icbggy2du7caW1tvWfPHrHqLUVFRSkpfnvxfuWI1lvp7M3DcEv5FkGGWQXZFbWVTGj5BEn4StI6AAAgAElEQVRL/KS0TOx0USCUUFw0NXBvhq1voq5v0upafdzuytLJYPA4CziIxR9F5U+TdzKyLfTufLJDSAHGJOuVQk8kiW9Yq/NQVFR09+7d8+fPDxs2bM6cOQCAiRMnQjv3Pn36TJw4UVPzkxMyshuMZIDtOSBThx0EsdOSKKqqqgCAuro6yWcNZwwBAOfPnwcA3Lz5qU+CrpbBf6Za//77L8CMtA4cOAAllI+Pj4+PDwBg586dq1ev5kr87Nmzc+fOhYP/GRkZy5YtE8clsFis69evMxgMBQUFcaTf2eha3e3YuZ8GTeN+f1JbyQQAsFmc9Ht5UAmpaSqicS8AQEF2BTTMamQ2Q/P2AV4mquqK0LjKfID+d1uHf7d1uPvUvu5T+05Y8Nngpbzip+/D4twqmPiyw+ND9o8Z4GnSYsHgIspe5p+69ie33sKDty8+wIPB4ywEulJBDeFbxExD9BZXncGQi8lkjhw5cvz48bt3787KyoqNjYXh48aNCw8Pv3PnTkxMzNSpU4mzKwkjLS3t5+cHyNRhB0GUlkSRkpJqaGgYOHDgrl27JJ87lEofPnyoq6uDesvHx0dLSwsqpIsXL5aVlX348AH8Z6TFYrHgcNfKlSujoqKioqLmzp0LADh79mxZWRmeclxc3Pbt2+/evbty5Urw31ykyMu/bt06Pz+/4OBgFot78ONroxOKsFHfOqhpKgIAbp16vtz7WPiCy6vHRu8PiYe/LokYw+XKYd2kk7dOP981+x/4b+++OgAAh2G9YQqXolLS7+XtmXNhz5wL0HgLgQbM5JU+TfOlXM8pyK74dckVPBpyCfbwcmZSfLa8oqylkwEA4FJkyu9rblyKSoHev3hN+PkjtD07DofD8TQNEi6pziCncJhM5r1799auXVtZWQk+N7HS1NT09fWFo/iKioqurq7EAKsD8fT0BGTqsIMgSkvSjBo16sOHDzt37rx+/bqEsx4xYgQ8iImJgYoKhvzvf/8DAGRkZKD9fKCRVkrKJzvoysrK2NjY2NhYJLDq6+vxlNHQNLLuQrOTogKpw8TExMbGRtEm3gnpDLbwAiEtw1h3wheqGQDAq6QCOFilpqm4IHwkl28qaJt1avd9uGJx2vLBUId5BdrBBYmXIlOgSjMw0/ANcWkxRy19VZjdrVPPN/vHwmWDAIC3zz8AAHQNu8FolyJToG+tRb+MgvGTr72BNv6O3qaBa74R6DLRFof37t2LiYlp7YsiJibm3r17fNLhcDhzBkS09iucQBSoYP8lKzkdlp2dHRAQ8M0334SEhFy9ehU1aCEhIcuXL79w4UJ8fPycOXOIDVYnwcbGhkwddhTETkvSHDt2zN7efu3atR4eHhLOGplqrVq1Cg9B/gB/+eUXeGBqagow1w9wZAsHmtWjf5E/CLS48ubNm15eXiIsvLKy8pMnT2bOnBkdHd1p3U+0iUC9IP/IIuxQTex0eZcTqqorwEDcvoo/quqKIfvHFGRXFGRXvH3+QcdQTctAjctBKMRigP6EBU7p/77j2khRXlF2bNCAUd86pCTk1NU0mPfXh55IWyskzO7f86962+hYORvUlDOhdIOFWXfC98mtt8rd5M376wMApGUYi34ZVZxblZlaCAAYPM4CL5j71L62bka4c3xeNBT10fH+/ftPnjyZk5PTYm0MDAz08/Pj42kTwt80ns8jlljdwEHrB6HpFQAAN3JHjBw5Uhy5fz2UlpYWFxfr6elpa2uLMFlpaek//vhDhAkS6EOUlqSxtbUtKSnR1tZuaGhAfmUkA66NAAA6OjowBPkGhAsPdXR0oMG7u7v7zp07AQA7duxA42EQZNAKQZ4jXr9+DUPQUkdRoaqqqq6ufu3aNdEmK0nab9wjJr+XWvqqvPsYyivKtmkI3yLQu3qb52rpq7a2GaK0DIP39BYLCbODXhsAAMjSCy8JV8qtOX83s9cDbRlnT7UJE6FHJf6m8SJ80MGOke0sNhzAQ94vJ0+erK6u3rt3bzg/6OjoSNYPth8Wi3Xw4EF8B1s9Pb2pU6euWbOGvuRisVjbtm1bv359i78K6mYIjsu2+cFAaBMye9gBwNdGQUFBRUUFAJCRkZGXlyeZrHHfDRMnToQHMjIyLYajOcGkpCR9fX1DQ8PNmzePGDFi8+bNXBpx8+bNdXV1dXV1mzZtgiG9evVqf2kzMjJ8fHzYbHa3bt3ILoeEjqVNvVJXVxcXF5eeno7bEebm5ubm5qIQFouVm5tbWlqKIgi0c6Ikyc7OLioqgscPHz7EnYzDTzJpaWk4P2hvb09kVjthsVgDBw6EMsvOzu748eNhYWEAgH379nl5edG3TJ05cyY8sf3k5ua6ubm9e9eClxaCoBCl1ZHIysrKyspOnjzZwcEhKipKAobeo0aNQsfDhv3/XExAQABvuLKyMlRgZ8+etbW1dXNzO3v27IcPH7S0tLi8PJw9e9bQ0NDQ0BD5l2+nlwcWi7V69Wo3N7fExMSTJ08yGKSifiGY2Osip+1diDat15csWaKqqjp27Fh7e3v8Lfv5559NTEwOHjwI/w0NDTUxMUEmTRwOZ4zFYqlO0w6z2ey0tLS9e/eOHDnS399/y5YtMBwaU/v5+cH1g2SQQ+Rs27bt2bNnnp6eOTk5T58+DQgIWL9+fWFh4eLFi589ezZ69GiyDKhL01ne8K+WCxcuQOP0VatW2dra4t5ExQHeROJb2eBeQPHw06dPQ7H14cMHWDYfH5/Nmzfjabq7u8M1iZCVK1fGx8e3p5CPHj2ytbXlNQ4jfAF4TLX5buvw1uYNOy3IEL5FYmJifv31Vz8/v5ycnLt378I3GrJ3715bW9vFixfn5ubGxcXBaPiHDYfDmed4ULylb4vKykrk52/OnDknT56EO5kmJSXB0WsbG5uHDx+GhoaS9YPioLS0NCwsTE9P79y5c8bGxvhPe/bs8fT0TEhIgDu51dXVxcTE5ObmoggwBE7zxcTEvHjxAmALMuBBaWlpRETE9OnT4+Li8PFUOCmMZ4fWeeTm5v71118AgMuXL/NZ+UGgiRRFUR1dhq+d9PT0ESNGFBcXAwB8fHyioqLElxeLxSos/LQTMJfZFprB5AoHAEDvD7W1tQMGDMBn8crKyurr65WUlLS0tMrKyt68ecMVQTjy8vKg2rOzszt//jxX0/M1Q/Yn7hBU5DQD7bdzKa2AgABoEW9sbAyPa2troXV8XFzc2LFj/fz8YDeWm5trYmIyfPjw58+fAwDy8/O53hEGg3E8bbVwXuPp0Nq8Z3Z29u3bt2/evJmVlRUeHg4/wxYsWJCUlOTk5OTu7u7l5UUcX0mAmJiYwMDAffv2LVy4kPdXWJ3CwsLWr18P69Lx48eRWIch/v7+0dHR+Ng/CtHT04Odi52d3bNnzwAA0FAYADB9+vQTJ07gdQOG5OTk3L9/PzAwEIXDei6Wi/86ILYvHY+trW1eXt62bdsOHjz4+++/S0lJic+PvIyMDK+QgrQWDgDgnS5E4W3GoQncCwgAIC0tbWNjs3jxYjMzs+DgYGKeRehweGUWFydPnrS1tUWLEB0dP1v6Z2xsvG/fPmiCk5OTw1ul2/QaL0LYbDa0qbp3715ISAgKf/jwIVRae/bsAWTnQclSUVEBANDQaGGhBgAA+juEPqX5w+FweMVTcXGxp6dnZGSksbHxvXv33NzcvLy8nj59yj+pgICAwYMHc6k6gtCQ2cNOgYyMzPr167Oysrp166ampqasrMxgMB49euTj4wMHjb9grl+/7ubmFhISIi0traqqqqamJi0tHR4evnDhQiKzCB0OTYt1HR0ddMxnpVhBQav7M7ZzL0X+VFZWxsfHL1iwwMXFBX7Ioe2c+/TpM2/ePNSbKioqEpklYR48eAAAsLW1bfFXOJiUkJAgdPp79+6Fibi6usKRLXz+kSABiNLqRKBvYjk5uW7duu3ZsycxMXH06NFf9hz5kydPMjIyzp49W1FRQaQVoVMhBRhjLBa36SJh+PDhN27cQDbL6emfObXPzc1dvHjx8OHDdXV1fX19W3ydORzOJOuVYjKN79Wrl7e397p16+D6QTiJqa6uvnnz5mvXrsXExMyZM0fQ9f8EETJo0CAAwLlz51r8FVpWwUUJwmFlZYWOoS80cRsEE7ggSqvzAp0sbNiwQUtLC03AP3r0iGsnnK5FRkYGMkSTlpZWUlKC1vRhYWFd1x8p4UuF5haHbm5uAIDTp08DAFgs1uHDh9FPLBZrwoQJAICYmJhr166VlJQEBQW1mIj4TOMbGhrQsZ+fHxp+GzlyJDHD6gxAs1S0QJULaGU1ZMgQ4RL39PTEv2DhHGVVVZVwqRGEgwwhdF7Cw8O3bt0KAFBQUFBQUGCz2Y2NjcuWLcvIyJg7d+727ds7uoACc/36dbjL6bBhwxwcHKC9SO/evZEpMYHQeVCR02w7EgAAgB9//PHu3buBgYE7d+788OEDPpMYGhqanp5+/PhxbW1tbW3tRYsW/frrr2PHjm3N9kVBRqWB9VEEpceorKzcunXr0KFDyU4snZN+/foBAIqLi9PT03nnEENDQwEAw4cPRyHZ2dnouLa2ln/iCQkJyAoWAHD58mXw+Uwli8VCUgxfmUgQIWRMq1OjrKyM3hBpaem6ujo46mthYYG7Crx+/XpnG+vKy8u7fv36rl27UKlkZWXRAHhcXBxefiKzCJ0Q/obwCxYsgPoJACAjI3PlypVLly717dt37969KSkpx48fX7BgAYvFcnZ2xm2K9+7de/z48dbS5HA4sxx+EvmFsFisOXPmEJnVaVFWVobuRqEuR+GlpaUhISEJCQmenp64h0LcOv7333/nTZDL+RZu/37ixAkAgImJCQp5+fIlyq491mAEPpAxra6EtrZ2WlrauXPnAgMD1dTUKIpisVhsNhsOFEHE7SeiTXbt2gX38IE4OzuPHTtWWlpaSkoKAHDp0iVHR0fR7udFIIicNu3TXV1dce90MjIyo0ePHj16NPwXSSuusSsZGZk2V3JpKOpXMAsFLjGhKwP3zwkLC7O3t7ezs1uxYsXly5ehKrKzs4uLi4PDTj179tTT00tISNi0adOkSZPOnTu3b98+PB3YtC5btmzKlCmofk6ZMuXHH390cHBYsGABwEw1xowZc+LEidDQ0A0bNlRXV6PtLHGWLVsGAJgwYQL5Hm4PxJ9Wlwf6U0H/6ujoZGZmIj8RsbGxMTExmpqauPyqq6srLy/n49aBF+iIC7rOQoFRUVF//fVXWVkZ+iqSlZWNjY2dPXs2itOakxiCEBB/WpJBCjBoWmiJAwaDcSg5mAIiy739+x4SJADc9/Dw4cPQ6xVoZd/De/fuTZkyBRpv+fv7R0ZGqqqqQu9ZAID09HR7e3sAgJ2d3dOnT6GBL/R9Ck+HfrlQjjNnzoR6Tk9P7/Dhw1VVVYGBgch7lre3NzwxLS2ttaWRBDoQpfUlUFdXl5OTk56efvnyZW1t7fDwcAAAh8OhKCokJGT//v0AgNra2qamJhg/NjZ23rx5AIDXr18j5YT8hUK4xsaCgoLOnj2LB8rJyR06dAh+8TQ3NzMYDDhqlZubu2bNmjFjxtja2lpZWZHlhCKEKC3JEOzY8fsTdKodpgmSBLbnenp6rY39s1is9+/fg/8cQOTm5iorK6PI+K9QaXE4nNzc3IKCAmdnZ94GubS0tLi4GLbVdXV1paWlPXv2xC236urqtLW1yZhWeyBK6wsnIiLiwoULAIBr166hwOjo6BkzZgAAmpqaUBP87t07CwsLFGfq1KlwNwYAAIPBmDFjxqlTpwAAeJMdExMD7Sv//PNPoqgkQI8ePUpKSjq6FIQuhrauVknRh7bjEb44kNLq6IJ87RCl9TWSm5t7//598LkRyb1793777Tf076BBg/BZv3v37r1796579+7IEoVAIBAInRmitDoJRGkRCAQCgfAFMn36dAAANOEidCBEaREIBAKBQCCIC+JPi0AgEAgEAkFcEKVFIBAIBAKBIC6I0iIQCAQCgUAQF0RpEQgEAoFAIIgLorQIBAKBQCAQxAVRWgQCgUAgEAjigigtAoFAIBAIBHFBlBaBQCAQCASCuCBKi0AgEAgEAkFcEKVFIBAIBAKBIC6I0iIQCAQCgUAQF0RpEQgEAoFAIIgLorQIBAKBQCAQxAVRWgQCgUAgEAjigigtAoFAIBAIBHFBlBaBQCAQCASCuCBKi0AgEAgEAkFcEKVFIBAIBAKBIC6I0iIQCAQCgUAQF0RpEQgEAoFAIIgLorQIBAKBQCAQxAVRWgQCgUAgEAjigigtAoFAIBAIBHFBlBaBQCAQCASCuCBKi0AgEAgEAkFcEKVFIBAIBAKBIC6I0iIQCAQCgUAQF0RpEQgEAoFAIIgLorQIBAKBQCAQxAVRWgQCgUAgEAjigigtAoFAIBAIBHFBlBaBQCAQCASCuCBKi0AgEAgEAkFcEKVFIBAIBAKBIC6I0iIQCAQCgUAQF0RpEQgEAoFAIIgLorQIBAKBQCAQxAVRWgQCgUAgEAjigigtAoFAIBAIBHFBlBaBQCAQCASCuCBKi0AgEAgEAkFcEKVFIBAIBAKBIC6I0iIQCAQCgUAQF0RpEQgEAoFAIIgLorQIBAKBQCAQxAVRWgQCgUAgEAjigigtAoFAIBAIBHFBlBaBQCAQCASCuCBKi0AgEAgEAkFcEKVFIBAIBAKBIC66htJqbm5mMpkdXQpJwGazO7oIBAnR3NxcU1PT0aUgEAgEgniRkVhOKSkpW7ZsoR8/KCho9OjRAIC//vpr/vz5TU1NGzdu/PHHH8VWwI6kqanp9OnTv/zyy8iRIzdv3iymXKZOndrc3Iz+ZTAY4eHhvXr1wuNwOJzJkyfjIcrKysePHxdTkSRPeHh4YmIi+nfChAmzZs2ScBl279595syZ7OxsMzOz/Pz8mTNnhoWFKSgoSLgYBAIXx48f//vvv/EQ1A7z5+nTpxs3bsRD/vjjj+7du4u4fIQvi8bGRj8/Pzxk48aNdnZ2HVUeMUJJkJKSkrCwMDx3XV3d6OjohISEf/7558CBA999952amhr8KSIigqIoFouloqICQ6SkpIqKiiRZYAlQVFQUFhamq6sLr3Ht2rXiyysjI6N37974/e/fv39dXR1XtJKSksjISHl5eQDA3r17P3z4IERezc3Np06dEkWpRUxlZeXYsWPRHVi2bJkkc+dwODNmzIBZnz9/nqIoExMTAMCMGTMkWYxOQkFBwa1btzq6FITPeP/+vYeHB3pBYDtMh6SkJNRWAwCKi4vFWk7Cl0Fubm7fvn1RtUlISBBVyp2qD5Ko0oJ069YN3dbp06dz/VpZWTl06FD0hjc3N+Pf+u/fv5d8gcVEUlJSYGCgnJwcLn3EqrQoinrz5o2Ojg6e47Rp01qMOXv2bCsrK6EzWr16taWlpdCni5Vjx451lNLCh9OKi4sfPHgAj1VUVCRZjM4Ai8Vyc3MLDg7u6IIQuNm9e7cQSouiKFdXV6K0CIIyb948cSitTtUHdYCdlrq6OjqWlZXl+rV79+7R0dGqqqrwXxkZme3bt0tLSwMAli9fbmBgILFyipu4uLhFixZlZGTAUQ3JYGJiwjUXcOrUqW3btvHGtLCw0NDQEC6Xixcv7tixQ7hzJQCqXZIHn5pRUFAwNjaGHxL4KMJXwsqVK+/evdvRpSC0AG+zLO4TCV8z4qg2na0PkpydVps0NTVVVFTo6enp6+tPmzYNhYeEhMycObO5uZlrMKars2HDBnjwzTff5OTkSDJrIyOjd+/eoX/Xrl1rY2Mzfvx4PI68vLyUlJQQiT9+/BgOVba3lF8iWVlZ+L96enq5ubnp6elwHPfr4dChQ3v37u3oUhAIhC+QTtgHdaK1hwkJCTt37oTH48aNwycZ1dXV+cusmpoaFoslvrI1NTU1Nja2+FN9fX07E6dpCi3CCxw1atSyZcvQvxRFBQYGZmRk0E+BoqgWV4Pev3/f09OztrZWBKVsnerqaty0v004HE5dXZ34ysOVV2VlZWsvOe+d0dXV9fT0lJER7JunqampurpaoFLRuQOtPdbWqKur43A4Lf5UU1PT2kLaiIiI+fPn00lf0MvkUyQ8HeFeJYqiqqqq2my+mUwmaivYbLYEmns6l9bm02ez2e1vylpETMm2hhB1RlCEbt9oViEcPl1PiwhaNj6vMM1mtr6+vqGhgU5eHA6H/qNpbm4WrubQ74MkUFUQnUhp3b59Gx2PHz8+MDAwOTnZ43O46sTFixeHDh2qo6Pj6OjYrVs3S0vLH374Yed/PH/+fMGCBfjp58+fBwCcOnWKK9nKykqY4MSJE/Hwhw8flpeXT5kyRUlJSVVVdd26dSjrysrK+fPn9+3bt1+/foaGhl5eXqmpqWK6M1VVVSNHjpSXl7ezs3v+/LlI0ty5cyc+jVhbWzt+/PiKioo2Tzx79qy3t7ehoWG/fv2sra3Xrl2LGvekpCRvb29Ud/Py8uBtPHHiRHl5Odc9HzZsWENDQ0REBFd4YGAgAMDPzw/+i+zHYYIBAQHdunVzcHDo3r17//79uRZFhoWF4UkdPHiQw+GsXbu2W7duqqqqo0aN4tMi+Pj44OdyjfDR4c6dO8OHD1dWVnZ2dlZSUhoxYkRycjL6NSEhwcPD49mzZyhk7NixHh4egq7rjIqKsrOz09DQsLe3V1dXnzlzZnFxMfo1Li4Ovwp/f38mkxkUFAQrsJWV1cqVK5uamniT5fNY3759y/WMGhoanjx54uTkpKKioqWlBV8rAACLxfrrr78GDx5sZGRkb2+vqKhoaGgYFBT04sULlNH+/fsXLVqEOpsLFy7ANF++fEn/MukX6c2bN5MmTerevbuZmZm2traPj8+SJUv8/f3p3/CKiopt27ZZWVn16dPHwsJCSUnJ0tJy48aNHz58wKNxOJyDBw9aWFioq6v37NnTwcEhJCRkwIABND9gBG2paF7a8+fPfX19e/fuPWDAABMTk8DAwNLSUq6s379/P378eAUFBTU1tf79+589e5b+zeFDQ0NDSEhIr169lJWVTU1Ng4OD8c6P63o9PDy8vb1LS0tLS0u9vb1REyFQX8u/zkRFReHZwbVZL1++HDZsGB5+69YtGP/8+fN4eHBwMADg5MmThoaGampqVlZWmZmZNAtGpwpt27YNz27nzp05OTnDhg1TUFBQVVV1cXH5/fffUeSCggKuYhcXF//000/a2tpqamoGBgb+/v5FRUUoPv33BdBoZiE3b96cMGFCr1697O3tu3fvrqurO3bs2KtXr7Z4By5cuPDNN9+oq6v369dPTU1t3Lhxjx8/bu12vXnzZsyYMQoKCioqKpaWlufOnaN5nwHfPgiPxr+qiAXJm4YZGxuj3GfNmgUDi4uLu3fvHhISwhU5LS0NLoKDsFgsGM7hcKZMmYLuGkVRWVlZSkpK+KUdPXqUyWTiegJZd75+/brFZTJ1dXXe3t4oPDo62traGk8zIyODoqjU1FQjIyMAwIYNGyiKys/PV1NTk5eXF26lA3yHIS1axK9YsQJFGDx4sBBZ4MyaNQuaIVdXV1tZWeFXN3z48ObmZhgtPDx8yJAh+IkcDickJAQAoKOjA+/Y0qVLAQCDBg2qr6+nKCo5ORmfGtfW1t6xY8eOHTsePHhAUVRsbCyeV1ZWFkwW9/0xadIkDodDUdTHjx89PDzMzc3RatMzZ87AReORkZEURZWWlsIFm9OmTaupqYFx2Gz2+vXrUWqhoaFQtyF+++03iqLwZgVZxLPZ7E2bNgEALCwsLly40NTURP+WstnsNWvWMBgMeXn5Z8+eURSVmJgoJSUlIyOzdetWGOf58+c7duzAfWps2LBhx44d9+7do5lLeXn5uHHjAADm5ua1tbUURUGHINra2pcvX0bRcOMnIyMjHx8fd3f34OBgZHXn6uoKP6xpPlaKovLz89HyWADAnTt3cFs3HR0diqJYLBb0D7J27Vr4EJOSkuB4rZyc3LVr12BSf//999y5c9G5zs7OsJIUFBQIdJl0ivTmzRtVVVV5efnr169zOJyqqqqZM2cCAHx9fWne8+LiYgsLCwAAKv++fftgFr169crLy0MxFyxYAFMuLy+nKOrq1auweM+fP6eTkaAtFZ1LO378OGwSb968SVHUP//8AwDQ19eHjRgkLS0NGb+6uLgsXbrUxMRkwIABvCWhAz4Jbm9vP3/+/GXLlqGKZ2Vl9e7dOxizoaHBzc0NRXZxcWEymfCnpqamwYMH9+zZMzs7m2a+dOoMm83GHeigG1VVVeXk5ITCT548iZK9fv06Ch84cGBUVBTAmDp1Kp2y0axCbDYbt5f18fExMTHx8/MLCAiAZsoAgAULFqBkCwsLDQ0NUfylS5eam5svWrTI3Nwchujr66elpaH4dN4Xil4zS1FUeHg4AAB+LVMUVVRUhDrKsLAw/PLr6uqCgoIAANbW1pWVlRwOZ/DgwQAARUVF2C9QFLVw4UJUkq1bt6qrq1tbW+O9+Y0bN+jcaqqtPoii3byInA5WWtOnT3/79m1sbKylpSUAgFdpURQFqykEKa1du3bBEHl5efSKotX7O3fuRKfj9x1vNZydnVE4vkwGX3ejr6//ww8/LFq0CIVkZmayWCwkUAoLC+FZ8OFpa2vj1ZEmbSqtqVOnogi6urqCps8FUloURWVlZXGZvS9evBj+xKu0oqOjYZx58+bBkJSUFBiyfft2FA0lxbvuA1+a9PTpUxj44cMHBuPT2KqHhweKPHbs2N9//x0ep6Wlwfk1IyMjFGHt2rXwrO+//x4F4sNI+vr6o0aN+uWXX9DcHBTlLSqtxsbGb775xtvbG1chNNm/fz9M7X//+x8KHDJkCAw8ffo0CnRxcUFZC5oR+rQ4cuQIDGEymfDSlJSU3r59i2IiP0YMBmP9+vUw8MqVKy1WM5qPdcyYMeh0MzMzOBgJ/+3Zs2tAzhwAACAASURBVCeHw7l06RL8d8yYMeisCRMmwEA9PT0UiI9e8649pH+ZbRbJx8cHAGBtbY1O4XA4o0aNoq+00CT77t27USAybPDz84MhaWlpvM/6/v37UlJSNJUWJWBL1ealvX37Fq5rtrCwgCFsNhuWfMSIESgELbAfOHAg/LqoqanBfcEIrbTQy3vz5k0UiK90xtfh6uvro7adoqjhw4f/8ssv9POlWWcePnyIcsTrwMqVK1E4rrQoilJWVobhWlpaNjY2f/zxBxKmvAvnW4RmFaIo6unTp6gYcnJyV69e5S0evjRv4sSJKHzUqFHwu6ioqAi9/lwNeJvvC81mtrq6Goq/Hj16oP7u559/Rom/fPkSnQ6/QAAA586dgyHIgZa/vz8MwZWWqakpFIh37txBgd7e3nRuNQKdyNsH0W9eREsHKy15eXnUy4JWlJaNjQ2KgN5G1PoYGhqimEgSycvLQ61NUdSePXvQ6XirgTpC8LnSgmodgpqkH3/8sXfv3kuWLKEoKjIyEv6qra2NzlqyZAkM3LVrl6A3pE2lderUKf63SCBwpUVRVEJCApeR0OHDhykepdXY2Ija3/3798NANJfRvXt3NAjEp5ajTh0AEBoaisJ79uyJHtzHjx8piqqqqtLW1obHHA4HCZSJEyeis9A6PgaDkZycDAPx1kpdXR16Czt9+rSFhYWXlxdsF3iVVmNj47hx4+D0oqD3s6ioCLWb4eHhKBzVRgMDA/jxRLVDacXFxaETkUilKMrW1hYGjh8/HgVqaWnBQFVVVWgqBEEftSoqKhUVFZQgjxVv1qECq62tnTRpkomJybFjxyiKwi3c0RcIvn4bjWLyUVoCXWabRYLXy2Aw4uLi0Fn379+nORpB/fcFBQAwNzdHgejbz8DAAIYcOHAAhgwfPhwNBFIUNXLkSPpKS6CWqs1LCwgIgKdMmTIFRbC3t4eBSUlJFEXhUypwuJd/SdoEV1q470Pki1JKSgoO+kLw1wG6l6MoqqysTEVFBQ4N0oF+ncFnrHClhcQE4FFauPNVOC6SkZHh5ORkZ2eH58UHmlWIoijcMmT06NEoHJ9Yd3V1ReG+vr4oHD5QCL6e7Pr16yic//tCv5lFX2IAgJiYGBgNr0vwg5aiqIcPH8L+ncFgoPcCCUcku3GlhQQZRVFoWEtfX5/OrUag1Lj6IIGaF9HSwXZa0I7kwYMHcESRPmiOHB9jRMeNjY3Z2dntL97w4cPhwdatW3NycqAIQzVPU1MTxUR9Lf6hJiqmTp164cKFhQsXHj58WOQrtoYPH45/jgAAvv/++3v37nFFS01Nffv2LTxGF66mpgbXJ1ZVVaHPej5MnjwZnXvs2DFoCXTv3j1kUtDY2Hjjxg0AQExMzIQJE+AHZUZGBvoY7dGjB0oNTuACADgczl9//cWb3aBBg2CVmDJlyqtXr65du9aif4empqbJkyc/fPjw7Nmz+FQ1Tf7++29kFtBi8QoKCq5duyZoslwcOXIEHbeYy4ULF3jN7Li+ZAYOHAgPPn78+OTJEyDsY4XvhYqKytmzZ9+8eQOnaCdMmABTgKaTMCa+fJWO8alwl9lakSAcDmfs2LHBwcG5ubkAgEGDBuGfLvyZPn26vLy8jIwMvnECuijeK7px40a/fv1OnDgBLUqvXLmCe2UUOa1dGkVRyLqFTzOF298MGjQIHQu6PqNF8EePxk6oz3X2Dz/8gI6RHdKZM2dGjRpF38WM0HVGIJSUlKAQsbKyevToUVpaGpKt/BG0CqHs0LGFhQWaQX748GGLdpZ4fPSaAwDwkSEc3veFfjPr4ODg4OAAAOjVqxeqNi2+6fv374cvgpaWlqKiIgwMDQ1dsWLFhg0b8EENBN5Eo2NR7VommarSIh1vES8nJ+fi4hIfH6+np0f/LDQr/PHjRxSIW1ziSxeFBjmsx0EiLy8vz/E/Dh8+DAPF5K9h3Lhxv/7663fffYd3nKJi4cKFuOkMVB55eXl4HNz8c+3atfCqnZ2d0QcEnQuXl5f/3//+B48/fPhw+fJlAMChQ4dWr16NGndoUxkZGfndd9/BELyzx21W8HeyxYUCLT4+LhobG318fC5dulRaWopGJgRC6OJJPhe804WfIsI91hZvrKmpaVFR0bt3727duiUtLZ2VlbVr1674+Hj+ReJCtM8azV1yOJxDhw6Zm5sHBwcLZPo6bdq04uLi4uLibdu2URT14MGDFStW5Ofnc0Xz9vZGK4gzMzMDAgL69u3LZZgoWvhfWn5+PlpDeu7cOdRMQXkN/nusuM8RvG6IHLxtxzOdNGmSvr4+PI6LiyssLAQAREdHC7RBlmReQDqNSYvQrEJ8kJKSQrqTzWZDVc0H3tecF97LoX8bpaSkUlNT37x58+7dO2Nj47Kysj/++OPXX3/lzQUtAEKTsAAAbW3tnTt3hoWFtdnjC+dmiA+SqSot0ln8aamqqs6fPx9fWcOf9evXjxgxAgBQVFRUVVUFx3jRMh8XFxc0ISVa2Gw28kTFYrEiIiK4InRR330RERGvX79GA3IlJSXh4eH4QOObN2/Qsbe3NxJMCK59flojKCgIDaEdOXLkm2++uXTpUnZ29qNHj6D96fXr19PS0pqamtBQNq4G8NuLH3OtXKPPoUOH0ILWVatWubu79+/fX6AUxFo8CJvNxu8/n1y++eYbPungDQrslUX1WFFhNDQ0IiIijh49mp2dPWfOHDMzszY7BoSoLhOxY8eOp0+fJiUlwX+bm5sPHTp08eLFy5cv9+vXj2apunfvnp+fv3fv3uPHj8vJyQUHB6uqqnI5TTAxMTlw4MDcuXPRqvhXr15NmTLl+++/RzZ8ooX/peG3sXfv3ryDB5qammw2Gw1nAjG788W9VZeUlKBjGRmZoKAguGEim80+evRoYGBgTk4ObNvpIPI6Iw7oVCH+cL25yOydTmSaWQjajhkbG58/f/7w4cM3btyYPHmynZ0d10wIm81+9eqVoMUQHx1bVTp+TAuBz9m3ibe3d0REhKysLJvNXrduXUlJyZkzZ+Cqqz59+nAt6RQh0tLSaOa+qanJ2tra+XME7ac7CbKysrGxsXi3yuVQA5n+AAAUFBSceaDpV9bKygrZncTFxe3Zs2fcuHEaGhrI5iArK2vz5s1oQAsAgItm3EUTXkJ8KFggxo4d+8cff8DjpqYmf39/fJSUDmItHkRaWhpPQehccCcXcMBcVI8V8s8//5iYmCxatKi+vv7Zs2d79uwR6INHVJeJUFdXv3Pnzpo1a/Dv18LCwsDAwNZ8ffGyceNGMzOz7du3Ozs7P3v2bNmyZS06wJs1a1ZiYiKXFcRvv/1Gf6ZSIPhfGv5Ym5qaeB+rmZkZg8HAOxiBnDYJCn63zczM8J/mzJmD1tb9/vvv0dHRgYGBKKRNRF5nxAHNKsQH3jdXVJERArVjr1+/dnBw8PHxuX379tWrV6Ojo/F1GxBpaWk0Y8hkMsU0K0efjq0qnUhpubu7L1++nH78BQsWpKSk6Ovrnzx5cvr06VFRUT4+PlFRUenp6bjRvcjBvyfQaLy4qaqqun79+vv378WXhZaW1oULF/CGG0eEV41mKlks1vbt2+GCgIkTJ6Lm9cKFC7gbLdzSBf8QxBsUZNIoKNDJEPJClJmZiS81pYNYiyfaXPAxY9jhifCxXrx4ccqUKdBd08GDB/El6PQR4c3kcDivX7+Wl5ffsmVLbm7uqlWr0BTGixcvaNpxrlq1KiwsrKmpSU1N7ciRI1x+ZBDv37+vra0dNGjQvXv34uPj8V4HX34hKtq8NDMzMzTz8urVqxbdyElJSeGiR6wuHKuqqtAxl9+cnj17IpvxnJycHTt2QHcV9JHMCyg0NKsQf9CbKycnh3uK4R8Z8OhaPtC/jdDRF5wZXLlypbu7e2tp4s9aUEMCcdCBVaUTKS15eXk0Z0+HAwcOuLq6+vv7l5SUJCQkXLt27fTp03PmzOEyasatO1tzhisQjo6O6PjPP//k+jUhIUHQBHFxTbXkPvjVq1cWFhbe3t5mZmYi8SvY2ge9jY1NdHR0i7Pj9vb2aDPsxMREfDMfAEB2djY+EwFBd5vrtvv6+qLZBBsbG2hTqaOjg8Zsx48fr62tjWeN/sX7A9wHI1q7IBwHDhxAyuDo0aMCjYl6enq2aN+KiicrK4u7DhIOLy8vdNxiLqampm1+YCAPourq6tCeV4jH2hobN25Ec2e4Qyb+cFUSkVwmhMlkOjs7w6EaTU3N7du3p6WloV6KzshldXU1WoVnYWHBZ37tl19++e233+DxiBEjHjx4sGbNGvoZQei3VG1emqKiIlqyXV9ff+bMGfz0+vr6+/fvAwDwKVQ00QNaaYXaQ0FBATxQUFDg7ZjxxdeWlpZcUqxN6NcZkfcFbUK/CvGhqKgIDQh98803bZrq4o6C6W/zRb+Z/e2336BFHfjc+p4XfJkFekEkifiaF0HpAKWF60c6W3/grwQ6joqK+v7772tra42NjfnXPHz/ZvTC5+Xl4eYjuCdiPLsWvwVXrVqFvkv+/PNPZPfKZrOXLVsmxGRBeXk5Om7xy3L37t3Qm3BjY+OPP/4oaPpcfPz4kc+s+fjx47du3cobrqenh3ZQ4XA4/v7+6Jvg2bNnEydORLMPSOm+e/cO7qgwZMgQ/ANCUVERLQ3DG1k0gYhPHQIAlJSUkPs03KQRjcG4uLigMbA2Hx/4fMcS2Kl069bt2LFjSDAFBwfTVxiOjo7IvKnF4v3www/oyxIvnkD73ixevLhPnz5cuVCYJ6dff/2VVyJXVlairQtevnz5+vVreLx06VI4eEn/sfK/sdAZD/oXLmIqKiqCPToqLTzAv4WgffTz58/hyiyBLrPNZ11dXY1/C5mamn7//fcAABkZGTrdeVpaGvomSU9Ph3fm33//RZZGuCKJiopCD1RKSmrTpk1w6oTmCjUgYEvV5qVBN7yQ0NBQ9OgrKirGjRsHLeKXLVuGbiZcngIA4HA4+DicQLUUBz8RLigGAKxYsYJ3Qtnb2xtd+7fffitoRvTrDG4dge5wQ0MDMncDPHsHoTpGc8MZLgSqQjjJyclowR3+OHDPzDjoC7+xsRH5Mhg2bBjuwpD/+0K/mcV3Q3nw4AEAoLm5+cKFCygQXdTq1avRR/W9e/dCQ0NRnIqKiokTJ8JK0mIXjx/Tn+uHtNYHCdeKigYxeY9ojeTkZPxKDAwMSkpK+MSvra3FV0k8evQIhuP2EEpKSnp6eoaGhqampoMHD54xY0Z8fDxKoaKiAlktdOvWbdOmTStXrjQ0NMQNUGbPnv369WsYf86cOSi8Nd90uKsFBoMxcODACRMmaGhouLm5CeqQ6c2bN/gFmpqaIt9LCHw4HfcfJgTv37/X0dFRUFB4/Pgxn2hwNo3L8V1ZWRneGWhpaU2cOLF///4KCgrIFw71uY+cvn37mpqa8johTE9PBwAoKytXV1ejwMLCQgaD0bNnT9wFFITD4UD3rQwGAzoo4nA40N5LX18/PT0dxcQXrhsbG7fo6h1fW46851Gf+6Fxdnam7ya+pKQEDiGYmJhAD14lJSXQnm/QoEHQKxhFUY2NjfhYHX7T6HD37l24BAn5oUF7X8D9bRCowsvKylpbWx8/fvzKlStokMPOzg6/7XQeK4vFwh0II385OLik6NGjR0BAgKGhIf7J++233x46dIiiqKqqKtQUSklJDRkyREdHB3lEo3mZbRYJDiapqKgkJiaiwEmTJoHPfbnxoaSkBA34AQD69es3adIkMzMz3PZl/fr1CQkJ0Dsl1KnwXOjXrVu3bvn5+XTyogRpqWheGlqfCABQVFT09PSEu7usWLECxYH+uwEADAYjIiIiMTFxzJgx+NyCpaVlXFwc7laUD3AEBYp4+KwpzN+Em5sbuj9cwB1v5eXloZs3QaH/auCD3wsWLNi8ebOtrS0+0+3s7Pzvv//CyFwrBDMzMwUtGP0qRH3uT0tFRWX48OHx8fF//vknsuiYOXMmnjjuT0tbW3vPnj137txBviTU1dVTUlJQZDqvMM1mFjmPhI8sICDA0tIS9/o2ZMgQ5DD5+PHj+FCinZ3d0qVLZ86caWhoiLppT09PFAGu0KQoimt8/cWLF/RvO58+iH5VES2SU1pJSUkDBgzgHX+Sl5d3dnbetGkT7ynJyclc5mkqKip37tyhMHdwrYEcXlMUFRcXh5uI9u/fPzU11dPTU05Ozt7efsKECYsWLfrnn3+ozx85xMHB4eLFi7xl++eff/A0ZWVlg4KCBJJZs2fPHjx4MK/rmu7du3t5eeEb+6SkpMBhZ2lpaehWVAiYTKaLiwvq4RgMhp2dXWvVl8lkOjo6ciktiqKqqqp8fX1xrWxqanrr1i08TlJSElq+Kysr26IvVoqiBg0aNGfOHK5ANze31uJTFBUZGamqqtqrV6/Q0FC4aZKPj09ZWRmKsG7dOq65YyMjI7QfDorD9dUCL3Pr1q1cY/u4y8c2YTKZixYtkpaWdnR0XLFiRd++feXk5NavX492N7p9+7apqSmevqys7LBhw1CzTof8/HxYRSdNmhQSEqKtra2lpXXmzBmuaKhmamlpJSYmIq/WAIDx48fzbmPA/7G+ffsWfQhCpKWlPTw8cnNz8UQePHiA60gXF5eUlJSnT5+insbBwQGdEhUVhZ6UhoYG7q6QzmXSKdLHjx9lZGSmTJliYGDg4eExa9YsIyMjKSmp4OBgtKtEm/z222/IbJzBYAQEBJSUlODzINOnT6+vr1+2bJmDg4Obm5uRkZG/v//IkSPl5ORMTExu375NMyMIzZaK5qXBDabwnr579+5cnz0cDmfVqlXIRFJKSmrJkiVHjx4FAGhqarq6ugYGBq5bt45myzZ06NBRo0aVlJQcPnxYV1f3u+++CwwMVFJSkpOT27BhAx+59uHDBzk5OdyDvKDQfDWys7ORG1UAgJ6e3smTJ7ds2SIlJdWnT58RI0YEBQVB/8Pnz5/HnwW8e/R3F0DQrELU50rL19c3IiICGc7LyMisX78ebnKFwJXWlStX8Kk6S0tLNHZA0X6FIW02s2VlZfhnVa9evU6ePFlXV4fm3TQ1NfH9cx4+fMi1WNLZ2Rk6gm9oaICuuRBSUlLr16/PysricjvSrVu3+/fv07zn/PsgmlVFtEhR4t9qXhwUFhYuXrz4/PnzfMYVnz59iipEdXV1cnJyVVVV//794Rf806dP+/Tpg/v5EBSKojIzM58+faqsrDxgwACxLm8pLi5+9OiRtbU11wsjPgoLC69evdriYH51dXVqampxcbGxsbGzszOvev748ePjx4/r6+vt7e3xbh7nyZMn6urqXJPiycnJvXr14uNnpaGh4cGDBwUFBSoqKgMGDGjTOFTClJeXP3z4sKKiQltbe/DgwUL74OHPmzdv0tLS6uvrjYyMXFxceB2LaGtrl5WVAQC0tLRKS0ubmprS0tLev39vbW2Nf9dy0eZjbZOqqqp///1XSkrK0dERjcRkZ2cnJSWZm5v369cP/64oLi5+8uSJnJyck5NTi/YrbV4mf1gs1u3btz09PSmKev78OTQh79evn6B15t27d0lJSbq6uv3790ejCw8ePHj37t2AAQPg+5iamtqzZ08dHR04XVtSUmJmZmZvby+EI1w6LZVAl9bU1PTs2bPMzExYJ1ts8WpqauDeQY6OjhoaGtAdF39XAi2SnJyMzFiZTGZ6enpWVpaWltagQYPafBcGDhy4detW+v4dWoROnWlubn78+PG7d++srKz69u0rIyOTnZ2tqqqKbwsoWuhUIQDAixcv0MCzr6/vmTNnampqkpOTmUymk5MT7yrgKVOmINuV58+fW1tbv379OiMjw8DAwMnJqT2zYG02sywW6+7du2VlZQ4ODsg0orKy8tq1a1paWi4uLrzV7P37948fP+ZwOFZWVlz77YqDNvugdjYvgtJVldaDBw+2bdv27NmzRYsWoXtEUVRdXd21a9egY9yYmBiune0JhK8BLqXV0cUhEFrg/fv3FEXBXrywsNDV1fXNmzfi8MzcVeBVWvzjcyktse5GQGgnncVzqUCUl5d7eXnV1dVFR0ej7b0Qq1evNjY2zs/P5xqWJBC+NgS1JCUQJMORI0eCgoIoijp37tyECRN++umnoKCgr1lmcSHom0ve9E5Ol1RaTU1NcM1Ci252i4qKSktLhw8fbmlpKfGiEQgdD/K2UFVVxWQykf9AAqGTcOrUKbQ1ZO/evaOjo3HfBF8n6LUFAKCtYOnHx+3PCJ0N6bCwsI4ug8CoqqoqKyvfunUrPj6+srKyubm5srIyPz//6dOnR48eXbJkydixY0+cOCGSfVIJhC5EU1PTuXPnjh07hkKkpaXp+OAhECRJUVERdEzw5MmTqKion376CfdH8BVSU1MTERGBvKIUFha6uLi05neUoqinT5/u2rULeWsrLy8fN26cEHaBBMnQVe20AADFxcXx8fHPnj2rqKior6/X0tLS0dExMTEZP3482jCHQPiqOH/+fHR0NFegrKzswYMHxWSeTyAIAUVRJ06cuHHjhqqq6tSpU7l2MfoK2bp1K/QMgmNiYgL9X3CRlZXF61hRSkpqxYoV/F2JEjqKLqy0CAQCgUAgEDo5ZE6BQCAQCAQCQVwQpUUgEAgEAoEgLojSIhAIBAKBQBAXRGkRCAQCgUAgiAuitAgEAoFAIBDERQcorebmZuh3lEAgEAiEuro64uVcHJDetpMgad+ef/311/z585uamjZu3MjrEUQyNDY2+vn54SF79uwxNTXtkMJ0TpYvX56dnY3+nTJlCu+uRwTJkJKSsmXLFvSvgoLCiRMn+J/y9OnTjRs34iF//PFHZ3Yyx1vgQYMGrVixoqPKQ5AkCxYsOHjwYLdu3U6cONHOHaa/Ktp8azpDb0v4BCVBWCwW2slcSkqqqKhIkrnjPHnyBJUEAPD48eOOKomYSEpKyszMFDp+dXU1Lq3Wrl0rhjK2UQYChM1mHzlyBD0LFRUVOmclJSXhNby4uFjc5Wwn1dXVy5YtQwX29fXt6BIRRE9BQcGtW7fwkIcPH6KHbmVl1UHl6qrweWs6T29LoChKorOHFEWxWCx03IHDxf369Rs2bFhH5S5uCgoKRo8enZqaKnR8NTW1cePGiad0dMtAgDAYjJkzZwo6IuXo6Ghvby+mIokDNTW1adOmdXQpCGKEzWb7+fmdOnUKD8Q378OPCXTg89Z0nt6WACRspyUjI7N9+3ZpaWkAwPLlyw0MDCSZOxdf6uYkTU1NU6dOLSsra2d8WVlZURdN4DIQIAwGAx+gookkn6BI6HIFJgjEypUr7969yxXo6uo6efJkAICiouKOHTs6olxdm9bemk7V2xIkbacVEhIyc+bM5uZmHR0dCWf9NcDhcGbPno22KRV5fHHQGcpAIBDEyqFDh/bu3csbLiUlFRsbW1BQ0K1bNyE+Jwh8IL1t56ED1h6qq6vTfPC1tbW848kURdXW1tLMi8Ph1NXVCVY+jPr6evqR2Wx2dXV1i4mgUdzWaGpqajMOTk1NDW8gi8UKDAzk3WC4NQSNDwDgcDgtZs0F/fsmRBkAAK1VAIqiqqqqKJFu5SlQHWitvjGZzMbGRnjMZrNbLGF9fX1DQ4NwhaQPncthsVh0XrHa2lo0JdFa7aWT3cePH9uM0yZsNps3HXTP24mgryf9BkogKIoS4Toymqk1Nze3/3IiIiLmz5/PJ4KBgQF/mVVdXS3Q3CKHw2l/vaJz4TRfFhw+vRL91GheXZu9bU1NjUB1GwBQVVXF4XC4ApubmwVqKr86JGYRlpSUNPRzYJcTGRmJB4aGhnI4nL179/bq1QsAICUl5eXllZeXR1FUTU1NcHCwkpISAEBPT2/79u0sFgsmfvnyZTwRPz+/+vr6OXPmyMvLS0lJWVparlixorGxES9PYGAguglcFvEVFRXBwcHW1tZ9+vTp1auXp6dnSkoK/InJZA4bNgzPKz09/dWrV2PGjJGRkQEAaGtr79u3D0aOi4uzs7MDAMjJyQ0dOvT58+dc94TFYm3fvt3Z2dnIyMjY2NjJyen48ePo161bt+IZ7dixo6mpac2aNZqamgAADQ2NRYsWffz4EcX39fXFn6y1tfXQoUO9vb1beyL848fGxqKf1q5dW1tbu2DBAmVlZQBAjx49tmzZ0tzczJUgn/smRBnOnTuHX/68efMoijpx4gSsGJaWlq9fv4aJlJeXb9261dLS0tTUVEdHR0FBwcLCIiwsrKSkpLWbOXTo0GHDhqWlpVEUNWbMGBSYlZVF51o2bNiAJ3XgwAE2m71mzRoVFRUpKamRI0cymUyKoths9oEDB8zNzeXl5bW0tPr167dkyRJ7e3u8Jty4cWP8+PE9e/Y0MzOTl5fX0dEZM2ZMfHw8143q2bMnvEU0LeIpiho6dCi6sbm5uUuWLIGJmJiYzJs3r6amhiv+69ev58+fb2RkZG5urqqqqqam5uTkdPjw4YaGBjxadXV1SEiIvr6+mpqaurr60KFDV65caW5ujsehUxMaGhoWL14MJ/FNTEw2bdr0+PFjVGD6FvGXLl0aPHgwg8HQ0tKys7NbunRpTU0Nk8lcuHBhcHAwjPP999/jz+vcuXMURZ08eZKrSlRUVOAp83896dRPrsZt6NChHh4eN2/epChq1qxZKPD+/fv8r/Hvv//28vLq2bOnubm5lZXVmjVr0Nu3ZcsW3ixSU1MvXbrk4eGBAl+8eEEnNfza9+zZY2Vlpaurq6Wlpa2tPX/+/IKCAoqiHj16hGc3YcIEeMrIkSPx8J9++gmGR0RE4O+4vr4+jJCRkcF1fxYtWsRVjHfv3vn7+6upqfXu3VtJScnBweHYsWN4hClTpuApxMfHFxUV+fv7y8vLAwAMDQ0PHDjA4XD43Nv379/jN2ro0KFFRUV79+7V0tKCpfXz8yssLOQ6i87LQrOVoJkahOZbJjTH0wAAHtdJREFU01pvi7hw4YK7u7u2tra5ubmSkpKFhcXSpUt3/Ed6ejrXK3Ps2LHq6urg4GBVVVUAgIKCwrx582DxMjMzR44cyWAwGAyGpaXlP//8w+duf7VIdO1hWloafAEgSCf99ddfKHD48OGzZ8/W1ta2tLREgRYWFsXFxXZ2dn369MEV+qZNm1DiuAWAkZGRj4+Pu7t7cHCwhoYGDHR1dYUDHpDWlFZqaqqRkREAYMOGDRRF5efnq6mpycvLnzp1CkaorKzs378/OvfAgQPq6uq2trawCkKOHj0aFRWlqqpqa2vLYHwaONTS0iovL0cZlZWVeXh4AAA8PDzYbHZTU5OTkxMAICQkBEZgs9n4It4ZM2aMHDlST0/P0NAQBQYEBKAEf/75Z09PT/STv7//jh07du/e3drj4B8fV1rz5s2ztbU1NjbW1tZGgevXr8dTa/O+CVGG69evo58GDhwYFRUFMKZOnUpRVHFxsYWFBQDg2rVr8Kx9+/bBCL169YIaHd7MGTNmoHMNDAyqq6vhTxwOJyAgQFlZOTk5mea1sNns9evXo9RCQ0Px6gQA+O233yiKWrBgAQDA19cXPverV6/q6uoCAJDSCg8PBwAMGzYMtllFRUXW1tYwhbCwMPxGtVNp2dvbz58/f9myZeh1sLKyevfuHYr877//Kisra2pqwjVKDQ0N/v7+MKaXlxf6SmlsbHRwcAAA7Nixo6GhgcVi/fzzz9LS0lpaWgLVhIqKCjc3N5i+sbHx0qVLnZ2dBw4ciApMR2k1NzeHhoZKSUkBADZu3Mhms+vq6oYMGWJlZWVjYwMAQEqLyWSOHj0aJR4REQHDX79+3doKzTZfT4pG/eRwOCtXrkQh8vLy+BKw5cuXMxiMuLg4PtfI4XBCQkIAADo6OrB4S5cuBQAMGjSovr4eXhpesaWkpPLz8+G5WVlZAAAXF5eXL1/STA3y9u1bV1dXAMCMGTNYLFZlZaWioiIAwNTUtKysjKKoxMRElCN69M3Nzd9//z0KRzf/77//njt3Lgp3dnaG3XlBQQGHw4mMjEQ/DRkyBL/2M2fOwIUgkZGRFEWVlpbC12fatGnoO6Gurm7UqFEohR07dhgaGpqbm+MrSODpfCgsLMQb1aVLl5qbmy9atMjc3ByG6Ovrw68yCM2XhWYrQTM1SsC3prXelsPhTJkyBQZGRUXBegLHLxBHjx5tbm7Gn9rKlSvt7OxMTU179OiBAmfNmpWamqqpqWlraws/wiGJiYn8b/hXiESVFkVRsFPkevb4eKmiouLSpUth9UIVDgDQs2fP2NhYiqJqamrg1wYAQEVFBZfq6O1iMBhIB1y5cgUlgnsraFFpsVgsKysrGIi+Y+AqPG1tbfR6h4aGonP79OmTmppKUdTLly9how8A6Nat27hx40pLSymK2rZtG4q8a9cuVICgoCAYeOLECRiC7BjQN25ycjI6V0lJKTw8nKKoxsZG2JFA8P4yLCwMhZ88ebLNx8EnPq60lP6vvfuPqqLM/wD+XFC4CyKioIIaiCIKqwi4Cq4GaohmJ9GEFIxjbf5YO9oh0ahFa3XT1MrlnBVEZDmsvziUBekmEihhSkgioKCYi6ImkqCgkHgR5vvHc76f83i5XObCHTR6v/4aH+fOnRnuM/OZ58dnLCw+//xzSZLu3btHt+o//OEP9BeUed4M3QdJkqgC29ra/vGPf0xKSqKhnWFhYZIk0SRnMaa0trbmhQsXLqTCa9eu8XZHxpiZmRn/63Dh4eGrV6826FjEP42Dg8Ps2bNjYmJo+wkJCcXFxXw5NTWVvuj06dMqlYpHWvX19Xy8qr29PW12x44dtFm6QUpdjrQSExN54fHjx6nw1VdfpZX59VqlUuXn5/OSc+fO0Zq7du3ihRTF/vLLL/TZLVu20O1W5tlbsWIFX6dv377Xrl3jhXxkNCcn0uJxKmNszJgx1G4hJhujm70kSeJoa4q0JEmaNGkSlYuRlpzqKcn4fdbX14t3/bKyMvrspk2b5s2bp/8YqWOdt5lJknT27FlesmXLFl7y66+/jhw5kr6CKkJMTIy7u/uDBw8M2lpzczOftWpqakp1ZPDgwXy1+Ph4XqJWq+nAafvixVY8+Tk5OTrLJUmqqqqi/xIjreLiYl6bHB0dqTA6OpqvuXLlSircvn07bWHo0KHZ2dmSJFVWVtJQcWdnZ/0nWZKkoKAg2sjs2bN53FlVVUV/O3HfZFYWScZVwqCtGVprdN5tt23bxkvMzc2pUe2ll17ihVu3bqWPHz58mD5ubW3NG3QfPnzo7OxM5RMmTDh//rwkSeJA2xdffLHDE/57092Rlhgi0N9eHJ7i4uJCK4vPiBEREVQ+a9YsKq+oqKByisCsrKzECIw/CTHG+vTpQx0EOiMtesCys7Ojj7/99tu8kOKkqKgo+qzYoSDO76AmEzFhTHh4OC8sKyvjd1nGGDXsf/XVV1q/1KKiIvrsnDlz6ItWr15N5eIzsUKR1ttvv03lYtsApb+Sed4M3QdJiJ4ZY3l5efzUTZw4cdy4cUVFRdL/38UZY2IHFl1ihgwZIm4tLCyMtrZjxw5eqNFoBg0aRGGNzGMR/zQ2NjaNjY2SJKWmprq6ugYEBNy/fz8uLo7/74wZM8QGg1mzZvFIi25yjLEDBw7w/xUDBX4h5roYaYlNKbxHmzGmUqlKSkp4IU3FXbZsGS8Rb4E8aJAkiaaUv//++7TBxsbG0aNHyz97lZWVZmZmvIQ3THIG9R7W1NTY2Njwld955x0qF9uZxJv6J598QuVipDVlyhQqp0hLZvWUZPw+pScvF2KTmKen55EjR/Qc46NHj4YPH84/uHPnTl547949XtKvXz+NRsMLc3Jy6DHP0tKyvLw8Ly9v8ODB1Bsuf2sUuPj6+tJnKR6Ni4vjJdQWKEZaWVlZOk++nkhLnHFM0Uxra6uPjw8vDAoKopUPHTrEC01MTKgFmgJu9uTjlvg7F0dZ6CQOYzhz5gyVizkUvv32W14os7JIMq4S8rfWiVqj825Lf8rnnnuO1ly1ahUvNDc3py7LjIwM+vibb75JK4tXUbGvkIJvccvAPXPvPRQbIcWGfbFcXNY5QNvc3Jz67Bhj1L7a0NAgPi60RTWZj4XiqIFEbDPXuZM6d1jn3qanp9NoYvou+qLc3FypzaBpsXdSXJYzRL2LOvzqTpw3Q1lYWPCL75gxY/Lz84uLi/mTd1hYmLm5ea9evcRnO7rraM1ReOedd2g5MTGRL6Snp48ZM4Z6qztxLL6+vrz5PTg4+NKlS5mZmeJZys7OHj9+/MGDB/kw0qNHj7q7uzPGPD09eU/csGHDfH19tfa87c53hbhZ3inGGJOEW+CSJUtUKpWVlRVF0vr3ZPPmzQEBAfxB1sLC4uLFi7xcztlLTU3VaDS8hA6cMUbP+nKkpKRQlDB27FidR9ppnaie7f0+GWOrVq2i9pW9e/fyY7906VJVVZX40NhWYWHh1atXtXajb9++/Bjr6uqo3dTPz2/58uV8ubGxMTg4OCQkJCkpSWzrkrk1sfOdPrt79+7ly5fv3LnzjTfe0LPDxlJWVkYPqGJ3Fe+VZoy1traKY06IziuVJEkGjY4Xu9LEvrnc3Fy+YGhl4dq7SsjcmlFqDWPs8uXLbQ+Tlh89eiS+HYR0eJsTl7vhlvSb091ZHgzS3kXT0IupeNG/cuWKnpyl9Cu8fv36n/70J75869YtvlBRUaH/i3TumM5C+iLG2OzZs/kDNPWiNjQ03LlzR8+cEaPcTjpH/+F07rzJ0V7+s1dffTUwMLClpWXAgAGSJP3www9fffXVjRs3dK7s5eU1efJkHh9cuHAhPz9/0qRJu3fvpmb5zh2Lzn2bOXOmWq3m7bWXL18ODQ3duHHjpk2b6OlZpVIVFhZWVFQMHz5cpVLV1NQcPnyY4j85AgICxCdaxpilpeXNmzf1f4p6ghhjfCgPYywmJmbt2rV2dnb8ofbbb7/VyjDJzZ07l8qzsrKysrJmzpy5ZcsWGrko5+zRl7In66ZBysrKaJkat4ylE9VTT34+BweHefPmpaamMsZqa2vT0tJCQkL279//2muvUctZh7sRHR1NzXIU51VUVFAosG3btv/+97/8l19SUhIcHKwVxsnZ2siRI6nuiDfRcePG7dq1S8+uGhdFkOzJ+7oYSF24cEH/RoxykdS6d/AFmZVFS3u/EJlbM0qtYYy5ubmdOnWKPTl7URzAQ08U7THWffl35ZmOtIxFrJ+3b99ub7WWlpbKykq+/PjxY60pM8yomRX/97//0fJbb70lNvNyv6HEqt153nTq16/fjRs3Pv3003379pmZmfEJMu3No16xYgUNKUhMTLSzsyspKZk3bx4vMeKxODs7x8XFLVu2jGanX7p0KTg4eOXKlTt37qTVnJyc0tLS9uzZk52d/corr4wbN45fB+VoaGioq6sTS+RM2BbjkurqaloeOnRoQUFBXFzcoUOHPDw8XnrppbbZNxYtWnTixAmxWz8zMzMnJycxMXHx4sUyz5740CzWTYNcunSJlo2eh8no1fOvf/0rj7QYY3v27AkJCTl48GB6err83Zg5c2Z4eLjWCtQbyBizsrKKj4+ndpH09PTS0lLeeip/a2L4oudSqTQxKBRrnLhMzaiKau/eIaeyyCdna0apNYyxDRs28JdLVlVV1dXV8e5vem7x8fGhgQpgRL+LSEscB0btz22Zmpr269fv7t27jDGNRuPm5taVH7R+NKSMMTZw4EBxWO5vTneeN53+/ve/b968WaPRLFiwIDk52cLCQgxltAQHB0dERNTW1jLGDh48qFarX3/9dRoAYdxjWbJkiaura2RkpDhcNDY29vnnn+fjP8rLy0NCQkpKSiwsLI4dO+bn55ecnEwDvBQivpeDepcaGxvDw8O//PJLxtj27dsjIyMrKyvFeXNk9+7dU6ZM2bBhAwVVGo1m6dKlU6ZMcXJyknP2xClRnU55JT5AGz1/ldGrp7+//+jRo3l0mJWVlZKSMmDAADEM6nA31Gp1h7sRGBg4atQoHqZoNBqeEJiazeRsTRwh1GHjqHLEm734cxXTOIm9isrRee+QX1nkkLk1o9QaxtjMmTP/9a9/RURENDc3r1+/Pjo6Ojc3l8/cd3Fx6fDt9dA5z9w4LSXQeA4m3Fp0omm9jDH9I7q6qNu+qHs8xcOJior68MMPNRpN3759//3vf2tNV25LrVYvWbKELzc0NMTGxtIsM85Yx3Lz5s0HDx74+vqeOnUqIyNDvLGlpaUxxioqKqZPn15SUsIYe/fdd/38/Az9ih07dmQ8iUZt6yE2g/GkEk1NTXPmzOHX+mnTponvrNXCGxLCw8MvX768a9cuGsrT1NR07NgxJu/subi40HKnx6KJG+GxnREp8XumHmpJkpYvX04/QiPuxocffujo6Ejzcs6cOSOOFpezNVdXVxrhWlZW1l4vvNLEGFRsnBbjHnFwnnLa3jvkVxY55G/NKLWGe+utt86ePevg4JCSkhIWFpaQkDB//vyEhITz5887OTl1Zcs6Xbp06cSJE92QlvlZ9ruItEpLS/mCjY2N/tfu0sgSxlhycrLW/4oza7pI/CKei0/83x9++KHrCY7p+a/t6F2jrC8y1nkzdB/q6+tpuImrq6vM9qdly5ZRi0hAQIA4aZkZ71hiYmJiY2P5cmBgYF5e3t/+9jf+T/7HjY2NpQFM4sBb+Xx8fAKfJCYna8/PP//MF9RqNQ/vsrKyaKS//j0JDw/Pz89njJmZmS1fvry0tHTmzJniQck5e+PHj6cSsRPQoB+eWJG1BqvpJA4cbpvhWosS1TM8PJxnpWKMPXr0aOHChR1+xMPDg1pbv/vuO2pE5K5cuUIj3Bljx44dS05OTklJSUxMpJ/3+vXrqddJztbUajWfpcEYa2lpiY+Pb2/f6Hx2eDK10Pp6Pujh4UGp+8So4s6dO7Q8Y8YMg763c+jewRjjk3nlVxY55G/NKLWGi4uL+/Of/7xo0aLq6uqsrKzMzMzU1FSe6NvQTXVo69atbm5u06dP9/LyMuIUn9+c7o60xNqls8p1ZZncu3evsLCQL1+8eLG8vJwvR0RE0JAO8d0ONLolKiqKGkWSk5Mp00FLS0tkZCQNVDRox3QWzps3j65oV65c4ekEudTU1FWrVvEnS0PPgFhV+AjKPXv2UAKVtvSsL+frDD1vhu6D+HU6H4mKi4upc+H8+fP88ff777+n4Uc6L0OjRo2iWRHiWHiDjkU8D+09riUkJNALT1Qq1caNG/m9lkcJ9BNljOXl5THGmpubv/76ayoUd55+rmJninzie1eys7P5wrp163g3Tds9YYyJaT7EPYmJiaFlKysrSq7LD0rO2QsNDaV2l4yMDDqT/Mm+7Q7rFB4eTtlbDh8+TOuLNyGRGE9TrHn9+vVr165ROb1ORGb1ZB39PkU2NjYUXQUFBckZxT948GB6iU1ra+uiRYuogaekpCQoKIh6kSoqKkJDQ5OTk/v37x8YGPj666/z8ocPH/L5+fK3Jl4utm3bJv5RioqK3nzzTb5M57O+vp62Q7Pz2JMvYmpbxy9cuMAnC+u8tlhYWNBuiKPjqSnOx8eH8rV2+jbRHnqaevTo0TfffMOXp0+fzrO5GlRZOrxKyN9aJ2qNzjOQkJCwcuXKBw8eODk5iTP02+r0vZgWHj58uH79en4IFy9eTEpK0vN1PVx3ppR48OCBOJKUErWJj6RqtZqSD4l91WI2KTEh23/+8x8qp4EIvXv3dnNz27dv39GjR2k067hx4yjHVXNzs4ODA23k008/pY2Ir0E1MTGZMGHC3Llz+/fvP3XqVEo0Qnne2P8nwpYk6f79++JzM6V7OXDgABWKOfROnjwpzu4ZMWLEK6+84uzsbG9vf+XKFb6O2Gs+cuRIShIWEBBA5WJmIzEDilqtnjZt2ogRI/QkDtWz/j/+8Q/6L3pFT2tr64gRI6icsvLIPG+G7oNW5wWl7yLV1dX0mM4YGz9+/Lx580aOHCmOxtuwYUNWVpbWBz///HPG2JAhQyjNjEjOsezbt4/WcXJyosxGhHcE8PsZL+HJdaytrXkWb8oyxRgzNzcPDQ0dPXq0mN6JD4eSJEmcZ8cY6/AdRxx/BOePFpRwkroXp06dSjum1ef44osv+vn5+fr60oXY3t4+KiqqurqaP3bv2LGDMoXy/qmJEyfSmZRz9vbu3UvtLsuXLz916tTatWvFdHQWFhbJycn37t3Tc4BJSUm0kblz5+bn56ekpIgzK8XUTXfv3qXrg7W19caNG999993nnntOnEL4xhtv0Cue5FTPDn+fWnhzIGPs6NGjcv6CkiTV1NSIMaKtrW1QUJCXl5darU5LS+PrXL161cXFZezYsfQpsSWGMUbvB5OzNUmSxHcUmpqaTp8+PSoqKigoaNSoUfTShU2bNtE6s2fP3r59+6xZs8R6Z2tr++WXX/K/eF1dHQVbKpVqypQpAwcO5FdIMW2KtbU11aPW1taQkBD+E+L551pbW3ntcHBw4NkyOUpvwf+CvLCpqUls4aYXSLRHzKdlZ2f3ySef5ObmUuIYGxsbqnTyK4sk4yph0NYMqjXt3W0nT54srs9fOjJixIjJkye/9tpr4nvAxBR0fn5+VE6pzpiQwIya5zn+O2loaBCDuc2bN+v/K/Rg3RdpFRQUaI1h7NOnT25ubkJCgtZEniFDhtTW1kZFRWnNGl2wYIFGoxHDLMaYWq3mmdMlIdKytbX97rvvxJ/gyy+/TAFHU1OT+O4FxpipqakYbKWnp4ujR3v37r106VJ+yWhqahJfxcMYMzEx+eijjyorK8VLPGPMysrq9OnT8fHxWk2yLi4utCdlZWVavZn+/v7itYxywXHDhw/XaDTz58/X2oE1a9bQzosJb8SXA7ZH5/pLly7Vmn/u7+8vCckAuV69esXExMg5b53Yh7S0NHFrjLF+/fq1TWgZGxtLM5JMTExCQ0Orq6up244xFhYWJiYO5TQazeDBg7XeeCPSfyzr16/X+rM6Ojp+9NFH4hYiIyM9PT2nTp3q6Oi4aNGiWbNmmZmZOTs75+Tk8BVqamrEv/6wYcNSUlIaGxtpqMSAAQOys7Pz8/O1ekWtrKxOnjzZ4Vn19/efPXt2dXX1nj17Bg0a9Je//GXx4sUWFhZmZmYffPCBVogpvtHF0tLygw8+aG5u5rc6xpipqSl/jd2ECRMCAwPd3d3Hjh27ZMkSHnhNmzaNMlbLOXvcF198Ic4ZnDFjBk/lyl9vt2DBgrVr14qJN3U6dOiQePUICAjYu3cv/VMrSeY333wj7pWXl1dhYeELL7xgZmbm4eExd+7cVatWiZkY9VdPmb9PLV5eXg4ODjrj+/bU1dUtWLBAvBiOGDHixIkT/H+3b9/OI0KVSjV16tT79+8XFxe3HWtPr0LSvzWSlJQkJmU1NTVduHAhfxUP19TUJGawMzc3j46OPnHiBGPM3t7e398/PDw8OjqaYuWEhASqMv379+evnoyPjxfDWcbY0KFDxSfD3bt3W1lZDRs2bM2aNbyfev78+eJuzJkzR+tIFy9e3NjYKCYDY4xZWlqKr2poS4y0jh49KiasansVlVlZ5Fwl5G+Nk1lr2rvbSkKq5/bw9wcsW7ZM6xYQGBgoSZJ4Zvju/fOf/zx79qxWXbC1tf3+++8lSVq7di0vGTZsmJg/+fdGJRney/vMsrOz4xmHbW1t79y5o9FoiouLb9686ebmphWfdUiSpMuXLxcVFVlaWnp7eys6z+XWrVs//vhjc3Ozm5sbvcmkK8rLy8vLy+3s7CZOnKg/YU/n1tej0+etK/tQWVl55syZQYMGeXl50WUoLy+vsrLS29tbHEkqysnJcXd3F9/kaKxj4QoLC4cOHTpw4EDel11dXT1y5EgPDw+tl5GdPHmypqbG09OT5mrcu3cvMzPT1tbWx8dH6z5kkIKCAhpv9PDhw/Pnz//000+2tra+vr46kxScO3euvLzc1dV17NixvHX28ePHx44da25u9vX15V11mZmZL7zwgomJyfXr13l3rbu7u845dHLOXnNz848//lhVVeXt7e3o6Mh30svLy6BkjI8fPy4qKrp69aqHh4eLi8vx48dpsNqKFSu0JnLW19cXFBTU1dV5eXnx1p2ioiIXFxc959m41TMyMrJ3795btmwx9IP19fWFhYW3b992cnKaNGmS/n4fo2yttbW1vLy8uLjYysrK29tb60mSKy0tLS0tdXBw8PT0tLS0rK2trampae9ie/v27XPnzpmZmU2cOFH+lN6mpqa8vLyff/65T58+3t7eWiGUsQQHB1Of3YULF9zc3MrLy8vKyoYMGTJx4sS2maLkVBb5DNpaF2vNrVu3Vq9enZaWpmccQlFRkf4BzQYpKCj45Zdfnn/++W6ek/5M6cmR1tPeHQDobtnZ2Xoire7X0NBw7do1GsPg5uaWnp7eXvQPT4tWpNVhAo7frry8vM2bN5eUlIivLpAkqbGxMTMzk4+0O3DggPjSYei6nplPq3OjhgHgt87QqXCKKi0tnTRpUmNjY0RExGeffXbkyJGhQ4cizHrG9eDbR21tbUBAQGNj4/79+0NDQ7X+97333nNycrpx4wZNBwFj6VFZHmh+Vl1dXYdzlwCg5xFza4nzi5+Kr7/+ms/Ly8jIuHv3blRU1Lp1657uLoFO4k9FTN/aw2g0Gn5n1PkKjaqqqjt37syYMYNeAgvG0kMiLY1G88UXX1C6DkmSPv744x78aAIAWlpaWgoKCj777DMqOX78uNYsvG7m7+/PBx1evHhx0KBB3t7echKeQXeSJOncuXM0LZQxFhMT01PfkWxvb79169ZevXqtWrVqzZo1R44cyc/Pz8vLO3z48Hvvvefr6xsSEnLkyJGnvZs9UA8Zp5WWltb2RVG9e/fetWvXb+gFggDQaWfPnv3444/blsfGxuqZ96C006dP79+/v7m52d/fv21/DTx1P/300/vvv69VqFKp1q1b1/XEpM+m27dvZ2RklJSU3L1799dff7W1tR04cKCzs/PLL78sTjgFI+ohkRYAAADAM6iH9B4CAAAAPIMQaQEAAAAoBZEWAAAAgFIQaQEAAAAoBZEWAAAAgFIQaQEAAAAoBZEWAAAAgFIQaQEAAAAoBZEWAAAAgFIQaQEAAAAoBZEWAAAAgFIQaQEAAAAoBZEWAAAAgFIQaQEAAAAoBZEWAAAAgFIQaQEAAAAoBZEWAAAAgFIQaQEAAAAoBZEWAAAAgFIQaQEAAAAoBZEWAAAAgFIQaQEAAAAoBZEWAAAAgFIQaQEAAAAoBZEWAAAAgFIQaQEAAAAoBZEWAAAAgFIQaQEAAAAoBZEWAAAAgFIQaQEAAAAoBZEWAAAAgFIQaQEAAAAoBZEWAAAAgFIQaQEAAAAoBZEWAAAAgFIQaQEAAAAoBZEWAAAAgFIQaQEAAAAoBZEWAAAAgFIQaQEAAAAoBZEWAAAAgFIQaQEAAAAoBZEWAAAAgFIQaQEAAAAoBZEWAAAAgFIQaQEAAAAoBZEWAAAAgFL+D0EAxPVJgFFjAAAAAElFTkSuQmCC;" vertex="1" parent="1">
          <mxGeometry y="740" width="803" height="332" as="geometry" />
        </mxCell>
        <mxCell id="LUQNYnWFUIe6KasXCGJX-14" value="User" style="rounded=1;whiteSpace=wrap;html=1;" vertex="1" parent="1">
          <mxGeometry x="610" y="495" width="120" height="60" as="geometry" />
        </mxCell>
        <mxCell id="LUQNYnWFUIe6KasXCGJX-16" value="Link queue" style="text;html=1;align=center;verticalAlign=middle;resizable=0;points=[];autosize=1;strokeColor=none;fillColor=none;" vertex="1" parent="1">
          <mxGeometry x="470" y="380" width="80" height="30" as="geometry" />
        </mxCell>
        <mxCell id="LUQNYnWFUIe6KasXCGJX-19" value="" style="ellipse;whiteSpace=wrap;html=1;aspect=fixed;" vertex="1" parent="1">
          <mxGeometry x="110" y="90" width="230" height="230" as="geometry" />
        </mxCell>
        <mxCell id="LUQNYnWFUIe6KasXCGJX-20" value="Triple pattern processig" style="rounded=1;whiteSpace=wrap;html=1;" vertex="1" parent="1">
          <mxGeometry x="165" y="170" width="120" height="60" as="geometry" />
        </mxCell>
        <mxCell id="LUQNYnWFUIe6KasXCGJX-27" style="edgeStyle=orthogonalEdgeStyle;rounded=0;orthogonalLoop=1;jettySize=auto;html=1;entryX=0;entryY=0.5;entryDx=0;entryDy=0;" edge="1" parent="1" source="LUQNYnWFUIe6KasXCGJX-21" target="LUQNYnWFUIe6KasXCGJX-6">
          <mxGeometry relative="1" as="geometry" />
        </mxCell>
        <mxCell id="LUQNYnWFUIe6KasXCGJX-21" value="" style="ellipse;whiteSpace=wrap;html=1;aspect=fixed;" vertex="1" parent="1">
          <mxGeometry x="120" y="100" width="230" height="230" as="geometry" />
        </mxCell>
        <mxCell id="LUQNYnWFUIe6KasXCGJX-22" value="Triple pattern processig" style="rounded=1;whiteSpace=wrap;html=1;" vertex="1" parent="1">
          <mxGeometry x="175" y="180" width="120" height="60" as="geometry" />
        </mxCell>
        <mxCell id="LUQNYnWFUIe6KasXCGJX-18" style="edgeStyle=orthogonalEdgeStyle;rounded=0;orthogonalLoop=1;jettySize=auto;html=1;entryX=0.991;entryY=0.417;entryDx=0;entryDy=0;entryPerimeter=0;" edge="1" parent="1" source="LUQNYnWFUIe6KasXCGJX-5" target="LUQNYnWFUIe6KasXCGJX-21">
          <mxGeometry relative="1" as="geometry" />
        </mxCell>
        <mxCell id="LUQNYnWFUIe6KasXCGJX-23" value="map&lt;br&gt;of TP" style="rounded=0;whiteSpace=wrap;html=1;" vertex="1" parent="1">
          <mxGeometry x="520" y="240" width="50" height="50" as="geometry" />
        </mxCell>
        <mxCell id="LUQNYnWFUIe6KasXCGJX-24" value="segment of Link Queue" style="rounded=0;whiteSpace=wrap;html=1;" vertex="1" parent="1">
          <mxGeometry x="570" y="240" width="50" height="50" as="geometry" />
        </mxCell>
        <mxCell id="LUQNYnWFUIe6KasXCGJX-26" value="Triple patterns" style="text;html=1;align=center;verticalAlign=middle;resizable=0;points=[];autosize=1;strokeColor=none;fillColor=none;" vertex="1" parent="1">
          <mxGeometry x="360" y="148" width="100" height="30" as="geometry" />
        </mxCell>
        <mxCell id="LUQNYnWFUIe6KasXCGJX-28" value="Partial results" style="text;html=1;align=center;verticalAlign=middle;resizable=0;points=[];autosize=1;strokeColor=none;fillColor=none;" vertex="1" parent="1">
          <mxGeometry x="120" y="410" width="100" height="30" as="geometry" />
        </mxCell>
        <mxCell id="LUQNYnWFUIe6KasXCGJX-29" value="results" style="text;html=1;align=center;verticalAlign=middle;resizable=0;points=[];autosize=1;strokeColor=none;fillColor=none;" vertex="1" parent="1">
          <mxGeometry x="530" y="550" width="60" height="30" as="geometry" />
        </mxCell>
      </root>
    </mxGraphModel>
  </diagram>
</mxfile>
